<svg width="56" height="56" viewBox="0 0 56 56" fill="none" xmlns="http://www.w3.org/2000/svg">
<path d="M33.8106 17.361C33.3179 17.0116 32.6352 17.1273 32.2856 17.62L32.2644 17.6499C31.9148 18.1425 32.0308 18.8252 32.5234 19.1748C32.7156 19.3111 32.9365 19.3767 33.1555 19.3767C33.4979 19.3767 33.8351 19.2163 34.0484 18.9158L34.0696 18.8859C34.4192 18.3933 34.3033 17.7106 33.8106 17.361Z" fill="#4756DF"/>
<path d="M31.3189 20.4607C30.9358 19.9935 30.2467 19.9256 29.7796 20.3088C28.2601 21.5552 26.5334 22.4424 24.6474 22.946C24.0638 23.1019 23.717 23.7012 23.8728 24.2849C24.0034 24.774 24.4455 25.0968 24.9289 25.0968C25.0223 25.0968 25.1172 25.0847 25.2117 25.0593C27.4011 24.4747 29.4046 23.4454 31.1668 21.9999C31.634 21.6169 31.702 20.9276 31.3189 20.4607Z" fill="#4756DF"/>
<path d="M52.7188 24.7702C50.9095 24.7702 49.4375 26.2421 49.4375 28.0513V28.5983C49.4375 33.1851 46.0977 37.0042 41.7227 37.7577C42.2941 36.9149 42.6284 35.899 42.6284 34.8063V34.0466C42.6284 31.1394 40.2631 28.7743 37.3559 28.7743C34.4487 28.7743 32.0836 31.1394 32.0836 34.0466V34.8063C32.0836 35.8712 32.4019 36.8625 32.9469 37.6924C28.7437 36.8014 25.5798 33.063 25.5798 28.5983V28.0513C25.5798 26.2421 24.1078 24.7702 22.2985 24.7702C20.4892 24.7702 19.0173 26.2421 19.0173 28.0513V28.5983C19.0173 30.8183 19.469 32.9652 20.3405 34.9487H13.098H12.8983V23.9338C12.8983 23.4455 12.5747 23.0163 12.1053 22.8822C6.26588 21.2122 2.1875 15.8057 2.1875 9.73438V9.1875C2.1875 8.58441 2.67816 8.09375 3.28125 8.09375C3.88434 8.09375 4.375 8.58441 4.375 9.1875V9.73438C4.375 16.0669 9.52689 21.2188 15.8594 21.2188H21.1233C27.4557 21.2188 32.6076 16.0669 32.6076 9.73438V9.1875C32.6076 8.58441 33.0983 8.09375 33.7014 8.09375C34.3045 8.09375 34.7951 8.58441 34.7951 9.1875V9.73438C34.7951 11.4156 34.4923 13.0578 33.8949 14.6152C33.6785 15.1792 33.9604 15.8118 34.5244 16.0281C35.0882 16.2446 35.721 15.9625 35.9373 15.3986C36.631 13.5902 36.9826 11.6844 36.9826 9.73438V9.1875C36.9826 7.37822 35.5107 5.90625 33.7014 5.90625C31.8921 5.90625 30.4201 7.37822 30.4201 9.1875V9.73438C30.4201 14.3211 27.0804 18.1402 22.7055 18.8938C23.2769 18.051 23.611 17.0352 23.611 15.9426V15.1829C23.611 12.2757 21.2458 9.91047 18.3386 9.91047C15.4314 9.91047 13.0663 12.2757 13.0663 15.1829V15.9426C13.0663 17.0074 13.3845 17.9987 13.9296 18.8285C9.72639 17.9375 6.5625 14.1991 6.5625 9.73438V9.1875C6.5625 7.37822 5.09053 5.90625 3.28125 5.90625C1.47197 5.90625 0 7.37822 0 9.1875V9.73438C0 13.246 1.12897 16.5756 3.26473 19.363C5.16173 21.8387 7.78291 23.7243 10.7109 24.7353V36.0423C10.7109 36.6463 11.2005 37.1361 11.8046 37.1361H12.0043V54.9062C12.0043 55.5102 12.494 56 13.0981 56C13.7022 56 14.1918 55.5102 14.1918 54.9062V37.1361H21.5156C21.7547 37.5079 22.0101 37.8718 22.2821 38.2268C22.3545 38.3213 22.4299 38.4132 22.5043 38.5059V54.9062C22.5043 55.5102 22.994 56 23.5981 56C24.2022 56 24.6918 55.5102 24.6918 54.9062V40.7411C26.1821 41.99 27.895 42.966 29.7282 43.5991V54.9062C29.7282 55.5102 30.2179 56 30.822 56C31.4261 56 31.9157 55.5102 31.9157 54.9062V42.7976C31.9157 42.3093 31.5922 41.8801 31.1228 41.746C25.2832 40.076 21.2049 34.6696 21.2049 28.5983V28.0513C21.2049 27.4482 21.6955 26.9577 22.2986 26.9577C22.9017 26.9577 23.3924 27.4482 23.3924 28.0513V28.5983C23.3924 34.9308 28.5442 40.0827 34.8767 40.0827H40.1406C46.4731 40.0827 51.625 34.9308 51.625 28.5983V28.0513C51.625 27.4482 52.1157 26.9577 52.7188 26.9577C53.3218 26.9577 53.8125 27.4482 53.8125 28.0513V28.5983C53.8125 34.7817 49.6396 40.2145 43.6649 41.8098C43.1863 41.9375 42.8533 42.3711 42.8533 42.8665V50.7864C42.8533 51.3904 43.343 51.8802 43.9471 51.8802C44.5512 51.8802 45.0408 51.3904 45.0408 50.7864V43.6833C51.5349 41.5735 56 35.4877 56 28.5983V28.0513C56 26.2421 54.528 24.7702 52.7188 24.7702ZM15.2538 15.1828C15.2538 13.4817 16.6376 12.0979 18.3386 12.0979C20.0396 12.0979 21.4235 13.4817 21.4235 15.1828V15.9425C21.4235 17.6435 20.0397 19.0273 18.3386 19.0273C16.6376 19.0273 15.2538 17.6435 15.2538 15.9425V15.1828ZM40.4409 34.8063C40.4409 36.5073 39.057 37.8911 37.3559 37.8911C35.6549 37.8911 34.2711 36.5073 34.2711 34.8063V34.0466C34.2711 32.3456 35.6549 30.9618 37.3559 30.9618C39.0569 30.9618 40.4409 32.3456 40.4409 34.0466V34.8063Z" fill="#4756DF"/>
<path d="M44.7202 54.133C44.5167 53.9294 44.2345 53.8125 43.9469 53.8125C43.6592 53.8125 43.377 53.9294 43.1736 54.133C42.9702 54.3364 42.8531 54.6186 42.8531 54.9062C42.8531 55.1939 42.9702 55.4761 43.1736 55.6794C43.377 55.8829 43.6592 56 43.9469 56C44.2345 56 44.5167 55.883 44.7202 55.6794C44.9236 55.4761 45.0406 55.1939 45.0406 54.9062C45.0406 54.6186 44.9236 54.3364 44.7202 54.133Z" fill="#4756DF"/>
<path d="M18.3386 40.9062C17.7345 40.9062 17.2448 41.396 17.2448 42V54.9062C17.2448 55.5102 17.7345 56 18.3386 56C18.9427 56 19.4323 55.5102 19.4323 54.9062V42C19.4323 41.396 18.9427 40.9062 18.3386 40.9062Z" fill="#4756DF"/>
<path d="M50.9688 8.96875C50.3647 8.96875 49.875 9.45853 49.875 10.0625V11.422C49.875 12.026 50.3647 12.5158 50.9688 12.5158C51.5728 12.5158 52.0625 12.026 52.0625 11.422V10.0625C52.0625 9.45853 51.5728 8.96875 50.9688 8.96875Z" fill="#4756DF"/>
<path d="M50.9688 15.4841C50.3647 15.4841 49.875 15.9739 49.875 16.5779V17.9374C49.875 18.5414 50.3647 19.0312 50.9688 19.0312C51.5728 19.0312 52.0625 18.5414 52.0625 17.9374V16.5779C52.0625 15.9739 51.5728 15.4841 50.9688 15.4841Z" fill="#4756DF"/>
<path d="M54.9063 12.9062H53.5467C52.9426 12.9062 52.453 13.396 52.453 14C52.453 14.604 52.9426 15.0938 53.5467 15.0938H54.9063C55.5103 15.0938 56 14.604 56 14C56 13.396 55.5103 12.9062 54.9063 12.9062Z" fill="#4756DF"/>
<path d="M48.3908 12.9062H47.0313C46.4272 12.9062 45.9375 13.396 45.9375 14C45.9375 14.604 46.4272 15.0938 47.0313 15.0938H48.3908C48.9949 15.0938 49.4845 14.604 49.4845 14C49.4845 13.396 48.9949 12.9062 48.3908 12.9062Z" fill="#4756DF"/>
<path d="M24.0486 0C23.4445 0 22.9549 0.489781 22.9549 1.09375V2.45328C22.9549 3.05725 23.4445 3.54703 24.0486 3.54703C24.6527 3.54703 25.1424 3.05725 25.1424 2.45328V1.09375C25.1424 0.489781 24.6527 0 24.0486 0Z" fill="#4756DF"/>
<path d="M24.0486 6.51538C23.4445 6.51538 22.9549 7.00516 22.9549 7.60913V8.96866C22.9549 9.57263 23.4445 10.0624 24.0486 10.0624C24.6527 10.0624 25.1424 9.57263 25.1424 8.96866V7.60913C25.1424 7.00516 24.6527 6.51538 24.0486 6.51538Z" fill="#4756DF"/>
<path d="M27.9861 3.9375H26.6266C26.0225 3.9375 25.5328 4.42728 25.5328 5.03125C25.5328 5.63522 26.0225 6.125 26.6266 6.125H27.9861C28.5902 6.125 29.0799 5.63522 29.0799 5.03125C29.0799 4.42728 28.5902 3.9375 27.9861 3.9375Z" fill="#4756DF"/>
<path d="M21.4706 3.9375H20.1111C19.507 3.9375 19.0174 4.42728 19.0174 5.03125C19.0174 5.63522 19.507 6.125 20.1111 6.125H21.4706C22.0747 6.125 22.5644 5.63522 22.5644 5.03125C22.5644 4.42728 22.0747 3.9375 21.4706 3.9375Z" fill="#4756DF"/>
</svg>
