<svg width="43" height="43" viewBox="0 0 43 43" fill="none" xmlns="http://www.w3.org/2000/svg">
<path d="M30.8182 7.21621C31.7461 7.39554 32.6215 7.17222 33.3498 6.57094C34.0786 5.96957 34.4638 5.15243 34.4638 4.20761V4.1386C34.4638 2.67568 33.4642 1.44281 32.0329 1.1404C24.8378 -0.380022 18.1392 -0.380106 10.9519 1.13998C9.52095 1.44264 8.52163 2.67552 8.52163 4.13809V4.20761C8.52163 5.15235 8.90673 5.96957 9.63538 6.57094C10.2007 7.03756 10.8542 7.27641 11.5522 7.27641C11.7537 7.27641 11.9593 7.25643 12.1671 7.2163C18.5296 5.98737 24.4562 5.98728 30.8182 7.21621Z" fill="#524FFC"/>
<path d="M23.0877 35.444H19.8134C17.7303 35.444 16.0355 37.1388 16.0355 39.222C16.0355 41.3052 17.7303 43 19.8134 43H23.0877C25.1709 43 26.8657 41.3052 26.8657 39.222C26.8657 37.1388 25.1709 35.444 23.0877 35.444Z" fill="#524FFC"/>
<path d="M5.62498 12.0206C5.62498 10.3677 6.21829 8.85109 7.20233 7.67134C6.62581 6.95059 6.24642 6.10843 6.08808 5.19482C4.25525 6.89769 3.10632 9.32728 3.10632 12.0206V13.53C3.89382 13.1458 4.739 12.8625 5.62498 12.6962V12.0206Z" fill="#524FFC"/>
<path d="M9.15101 14.2411C8.61706 14.2411 8.16186 14.574 7.97867 15.043H7.472C3.3519 15.043 0 18.3949 0 22.515V25.2856C0 29.4057 3.3519 32.7576 7.472 32.7576H7.97867C8.16186 33.2266 8.61706 33.5594 9.15101 33.5594C9.8465 33.5594 10.4103 32.9956 10.4103 32.3001V15.5004C10.4103 14.8048 9.84658 14.2411 9.15101 14.2411Z" fill="#524FFC"/>
<path d="M37.3602 12.6962C38.2462 12.8625 39.0913 13.1458 39.8788 13.53V12.0205C39.8788 9.3273 38.73 6.89771 36.8971 5.19476C36.7387 6.10837 36.3593 6.95044 35.7827 7.67119C36.7668 8.85102 37.3601 10.3676 37.3601 12.0205V12.6962H37.3602Z" fill="#524FFC"/>
<path d="M35.5131 15.043H35.0064C34.8232 14.574 34.368 14.2411 33.834 14.2411C33.1386 14.2411 32.5747 14.8049 32.5747 15.5004V32.3001C32.5747 32.9956 33.1386 33.5594 33.834 33.5594C34.368 33.5594 34.8232 33.2266 35.0064 32.7576H35.5131C39.6332 32.7576 42.9851 29.4057 42.9851 25.2856V22.515C42.9851 18.3949 39.6333 15.043 35.5131 15.043Z" fill="#524FFC"/>
<path d="M31.3993 37.9628H29.2576C29.3406 38.3698 29.3843 38.7909 29.3843 39.2221C29.3843 39.6533 29.3406 40.0744 29.2576 40.4815H31.3993C35.2294 40.4815 38.4739 37.9287 39.5223 34.4355C38.5527 34.8621 37.503 35.1387 36.4025 35.2363C35.3393 36.8753 33.4944 37.9628 31.3993 37.9628Z" fill="#524FFC"/>
</svg>
