<svg width="55" height="55" viewBox="0 0 55 55" fill="none" xmlns="http://www.w3.org/2000/svg">
<path d="M50.166 6.55273H4.83398C2.17186 6.55273 0 8.72223 0 11.3867V43.6133C0 46.2687 2.16219 48.4473 4.83398 48.4473H50.166C52.8215 48.4473 55 46.2851 55 43.6133V11.3867C55 8.73125 52.8378 6.55273 50.166 6.55273ZM49.4985 9.77539L27.6025 31.6715L5.51708 9.77539H49.4985ZM3.22266 42.946V12.0387L18.7429 27.4258L3.22266 42.946ZM5.5014 45.2246L21.0314 29.6946L26.473 35.0896C27.103 35.7141 28.1195 35.7121 28.7468 35.0846L34.0527 29.7787L49.4986 45.2246H5.5014ZM51.7773 42.9459L36.3315 27.5L51.7773 12.054V42.9459Z" fill="#3B37FF"/>
</svg>
