<svg width="270" height="270" viewBox="0 0 270 270" fill="none" xmlns="http://www.w3.org/2000/svg">
<path d="M153.749 249.4L153.749 204.345C153.749 198.235 158.702 193.284 164.812 193.284C186.613 193.284 198.472 170.924 200.116 126.792L164.812 126.792C158.702 126.792 153.749 121.836 153.749 115.728L153.749 20.5983C153.749 14.491 158.702 9.53925 164.812 9.53925L258.939 9.53926C265.051 9.53926 270 14.4949 270 20.5983L270 115.728C270 136.884 267.87 156.298 263.671 173.437C259.364 191.011 252.753 206.377 244.028 219.109C235.049 232.194 223.819 242.462 210.645 249.615C197.382 256.811 181.959 260.461 164.809 260.461C158.702 260.461 153.749 255.51 153.749 249.4ZM11.0644 193.283C4.95713 193.283 5.43964e-06 198.239 4.90586e-06 204.344L9.67081e-07 249.399C4.32894e-07 255.509 4.95636 260.46 11.0644 260.46C28.2083 260.46 43.6335 256.809 56.8915 249.614C70.0675 242.461 81.3044 232.193 90.2844 219.108C99.0068 206.376 105.618 191.01 109.925 173.432C114.122 156.287 116.252 136.873 116.252 115.728L116.252 20.5975C116.252 14.4902 111.297 9.53847 105.188 9.53847L11.0652 9.53846C4.95794 9.53846 0.00542311 14.4941 0.00542258 20.5975L0.00541426 115.728C0.00541373 121.836 4.95717 126.792 11.0652 126.792L45.865 126.792C44.2461 170.923 32.5606 193.283 11.0644 193.283Z" fill="#F9F3F3"/>
</svg>
