<svg width="40" height="40" viewBox="0 0 40 40" fill="none" xmlns="http://www.w3.org/2000/svg">
<path d="M9.25263 21.0932C9.20036 20.6487 9.1735 20.2072 9.1735 19.8188C9.1735 14.0213 13.8596 9.23878 19.5403 9.23878C22.19 9.23878 24.6707 10.3291 26.4955 12.0295L25.5804 12.9796C25.3742 13.19 25.2949 13.4977 25.3742 13.7893C25.4695 14.0645 25.6916 14.2751 25.9771 14.3399C26.1368 14.3725 31.3834 16.098 31.0494 16.0295C31.4743 16.1739 32.1028 15.7113 31.9857 15.0741C31.9535 14.9109 30.7919 8.96277 30.8591 9.30351C30.7956 9.01211 30.5892 8.7692 30.3037 8.68823C30.0341 8.60726 29.7324 8.68823 29.5262 8.89867L28.7488 9.67589C26.3527 7.39272 23.0627 6 19.5403 6C12.0984 6 6 12.2239 6 19.8188V19.8511C6 20.3076 6.02045 20.6603 6.04421 20.9302C6.07583 21.2878 6.33408 21.5807 6.67912 21.6514L8.30905 21.9839C8.83962 22.0923 9.31668 21.6383 9.25263 21.0932Z" fill="white"/>
<path d="M33.3256 17.3564L31.6909 17.0167C31.1597 16.9062 30.6793 17.3604 30.7446 17.9077C30.8012 18.3799 30.8264 18.8391 30.8264 19.1892C30.8264 24.9832 26.1402 29.7631 20.4593 29.7631C17.8095 29.7631 15.3286 28.6734 13.5038 26.9578L14.4189 26.0244C14.6251 25.8141 14.7045 25.5066 14.6251 25.2152C14.5299 24.94 14.3078 24.7296 14.0222 24.6649C13.8625 24.6321 8.61574 22.9078 8.94983 22.9763C8.67999 22.9278 8.41016 23.0088 8.23577 23.2028C8.04527 23.3809 7.96593 23.6722 8.01346 23.9312C8.04569 24.0941 9.20748 29.9848 9.14033 29.6442C9.20356 29.9357 9.40996 30.1784 9.69551 30.2592C10.0267 30.3439 10.3032 30.2415 10.473 30.0488L11.2348 29.2721C13.6307 31.5541 16.9208 33 20.4593 33C27.9014 33 34 26.7797 34 19.1892V19.1405C34 18.7818 33.9872 18.4297 33.9579 18.0796C33.9277 17.722 33.6705 17.4282 33.3256 17.3564Z" fill="white"/>
</svg>
