<svg width="28" height="28" viewBox="0 0 28 28" fill="none" xmlns="http://www.w3.org/2000/svg">
<g clip-path="url(#clip0)">
<path d="M15.3124 5.6875C11.4526 5.6875 8.31244 8.82763 8.31244 12.6874C8.31244 13.2494 8.37943 13.7959 8.5051 14.3199L0.576511 22.2484C0.204748 22.6203 0 23.1146 0 23.6404V26.0311C0 27.1167 0.883142 27.9998 1.96873 27.9998H4.35944C4.88536 27.9998 5.37979 27.795 5.75149 27.4232L13.68 19.4947C14.2039 19.6204 14.7505 19.6874 15.3124 19.6874C19.1721 19.6874 22.3123 16.5473 22.3123 12.6874C22.3123 8.82763 19.1721 5.6875 15.3124 5.6875ZM4.51398 26.1859C4.47275 26.2271 4.41784 26.2498 4.35944 26.2498H1.96873C1.8481 26.2498 1.74999 26.1517 1.74999 26.0311V23.6404C1.74999 23.582 1.77274 23.527 1.81403 23.4857L9.20159 16.0982C9.83471 17.228 10.7718 18.1651 11.9017 18.7982L4.51398 26.1859ZM15.3124 17.9374C12.4175 17.9374 10.0624 15.5823 10.0624 12.6874C10.0624 9.79259 12.4175 7.43749 15.3124 7.43749C18.2072 7.43749 20.5623 9.79259 20.5623 12.6874C20.5623 15.5823 18.2072 17.9374 15.3124 17.9374Z" fill="white"/>
<path d="M27.125 8.23795C26.7745 8.23795 26.4437 8.02587 26.3091 7.67954C25.2445 4.93835 23.0617 2.75551 20.3205 1.69086C19.87 1.51592 19.6467 1.00892 19.8216 0.558405C19.9965 0.107893 20.5036 -0.115285 20.9541 0.0595492C24.1519 1.3016 26.6984 3.848 27.9404 7.04588C28.1154 7.49634 27.892 8.00334 27.4416 8.17834C27.3375 8.21881 27.2303 8.23795 27.125 8.23795Z" fill="white"/>
<path d="M23.7985 9.34655C23.4551 9.34655 23.1293 9.14306 22.9898 8.80596C22.2836 7.09999 20.9001 5.7165 19.1941 5.01032C18.7476 4.82548 18.5355 4.31366 18.7203 3.86719C18.9051 3.42067 19.4171 3.20865 19.8634 3.39338C21.9953 4.27593 23.7242 6.00476 24.6067 8.13664C24.7915 8.58317 24.5794 9.09493 24.1328 9.27978C24.0234 9.32511 23.9101 9.34655 23.7985 9.34655Z" fill="white"/>
<path d="M16.6249 13.125C15.6599 13.125 14.8749 12.34 14.8749 11.375C14.8749 10.41 15.6599 9.625 16.6249 9.625C17.5898 9.625 18.3749 10.41 18.3749 11.375C18.3749 12.34 17.5898 13.125 16.6249 13.125ZM16.6249 11.375C16.6249 11.3758 16.6249 11.3761 16.6249 11.3761L16.6249 11.375Z" fill="white"/>
</g>
<defs>
<clipPath id="clip0">
<rect width="28" height="28" fill="white"/>
</clipPath>
</defs>
</svg>
