<svg width="30" height="30" viewBox="0 0 30 30" fill="none" xmlns="http://www.w3.org/2000/svg">
<path d="M25.8871 1.45161H6.04839V0.483871C6.04839 0.216653 5.83174 0 5.56452 0H4.11291C3.84569 0 3.62904 0.216653 3.62904 0.483871V29.5161C3.62904 29.7833 3.84569 30 4.11291 30H5.56452C5.83174 30 6.04839 29.7833 6.04839 29.5161V17.9032H25.8871C26.1543 17.9032 26.371 17.6866 26.371 17.4194V1.93548C26.371 1.66827 26.1543 1.45161 25.8871 1.45161ZM5.08065 29.0323H4.59678V0.967742H5.08065V29.0323ZM25.4032 7.25806H20.5645V12.0968H25.4032V16.9355H20.5645V12.0968H15.7258V16.9355H10.8871V12.0968H6.04839V7.25806H10.8871V2.41935H15.7258V7.25806H20.5645V2.41935H25.4032V7.25806Z" fill="white"/>
<path d="M15.7258 7.2583H10.8871V12.097H15.7258V7.2583Z" fill="white"/>
</svg>
