<svg width="91" height="91" viewBox="0 0 91 91" fill="none" xmlns="http://www.w3.org/2000/svg">
<path d="M45.4805 64.3931C41.1312 64.3931 37.5929 67.9199 37.5929 72.2527C37.5929 76.587 41.1312 80.1152 45.4805 80.1152C49.8313 80.1152 53.3696 76.587 53.3696 72.2527C53.3696 67.9199 49.8306 64.3931 45.4805 64.3931Z" fill="#4756DF"/>
<path d="M64.7252 53.6842C59.59 48.5519 52.7545 45.7241 45.4805 45.7241C38.2345 45.7241 31.4177 48.5332 26.284 53.6333C24.2105 55.6967 24.2069 59.0584 26.2754 61.1254C27.2801 62.1317 28.618 62.6843 30.0419 62.6843C31.4594 62.6843 32.7922 62.1345 33.7955 61.1369C36.9197 58.0321 41.0695 56.3218 45.4805 56.3218C49.9081 56.3218 54.0694 58.0429 57.1957 61.1664C58.2005 62.1697 59.5376 62.7238 60.9601 62.7238C62.379 62.7238 63.7111 62.174 64.7152 61.1764C66.7915 59.1128 66.7951 55.7527 64.7252 53.6842Z" fill="#4756DF"/>
<path d="M76.7727 41.673C68.4157 33.3353 57.3027 28.7441 45.4805 28.7441C33.68 28.7441 22.5835 33.321 14.2336 41.6292C13.2281 42.629 12.6748 43.9589 12.6726 45.3749C12.6726 46.7895 13.2238 48.1209 14.2279 49.1221C15.232 50.124 16.5683 50.6766 17.9894 50.6766C19.4083 50.6766 20.7425 50.1254 21.748 49.1278C28.0912 42.817 36.5199 39.3404 45.4805 39.3404C54.4598 39.3404 62.9001 42.8292 69.2475 49.1616C70.253 50.1649 71.5887 50.7175 73.0104 50.7175C74.4301 50.7175 75.765 50.1663 76.7676 49.1673C77.7717 48.1675 78.3265 46.8376 78.3272 45.4216C78.3287 44.0055 77.776 42.6756 76.7727 41.673Z" fill="#4756DF"/>
</svg>
