<svg width="43" height="43" viewBox="0 0 43 43" fill="none" xmlns="http://www.w3.org/2000/svg">
<path d="M32.6723 19.9052C33.4899 19.3118 34.1689 18.5479 34.6623 17.6663C35.1556 16.7847 35.4516 15.8064 35.5296 14.7991C35.6077 13.7919 35.466 12.7797 35.1143 11.8326C34.7627 10.8855 34.2095 10.0261 33.493 9.31389C32.8687 8.69178 32.1261 8.20111 31.309 7.87088C30.4919 7.54065 29.6169 7.37755 28.7357 7.39124C25.0767 7.44339 22.1057 10.5327 22.1127 14.278C22.1121 15.3773 22.3729 16.4609 22.8737 17.4396C23.3745 18.4182 24.1008 19.2637 24.9927 19.9063C25.0384 19.9407 25.0752 19.9855 25.1001 20.037C25.1251 20.0885 25.1374 20.1452 25.1362 20.2024V21.0993C24.8024 21.2918 24.5309 21.5759 24.3537 21.918C24.1765 22.2601 24.1011 22.6458 24.1365 23.0294C24.1718 23.4131 24.3164 23.7785 24.5532 24.0824C24.7899 24.3864 25.1088 24.6161 25.4721 24.7443V25.5313C25.4727 26.0657 25.6853 26.578 26.0631 26.9559C26.441 27.3338 26.9534 27.5463 27.4877 27.5469H30.1752C30.7096 27.5463 31.222 27.3337 31.5998 26.9559C31.9777 26.578 32.1902 26.0657 32.1909 25.5313V24.7438C32.5542 24.6156 32.8731 24.386 33.1098 24.082C33.3466 23.7781 33.4912 23.4126 33.5265 23.029C33.5619 22.6454 33.4865 22.2596 33.3093 21.9176C33.1321 21.5755 32.8606 21.2914 32.5268 21.0989V20.2023C32.5257 20.1448 32.5383 20.0878 32.5636 20.0362C32.5889 19.9845 32.6262 19.9396 32.6723 19.9052ZM23.4568 14.2755C23.4511 11.2622 25.828 8.77673 28.7552 8.73499C28.7804 8.73499 28.8063 8.7344 28.8319 8.7344C30.2258 8.73437 31.5629 9.28707 32.5499 10.2713C33.1268 10.846 33.5721 11.5389 33.8553 12.3023C34.1385 13.0657 34.2527 13.8815 34.1902 14.6933C34.1276 15.5051 33.8897 16.2937 33.4929 17.0047C33.096 17.7157 32.5497 18.3322 31.8916 18.8117C31.6716 18.9706 31.4925 19.1797 31.3694 19.4216C31.2462 19.6634 31.1825 19.9312 31.1834 20.2026V20.8282H26.4803V20.2024C26.4814 19.9312 26.4178 19.6637 26.2948 19.422C26.1719 19.1803 25.9931 18.9713 25.7733 18.8125C25.0551 18.2941 24.4705 17.6124 24.0677 16.8235C23.6649 16.0346 23.4555 15.1613 23.4568 14.2755ZM30.1756 26.2032H27.4881C27.3099 26.203 27.1392 26.1321 27.0132 26.0061C26.8873 25.8802 26.8164 25.7094 26.8162 25.5313V24.8594H30.8475V25.5313C30.8473 25.7094 30.7764 25.8802 30.6504 26.0061C30.5245 26.1321 30.3537 26.203 30.1756 26.2032ZM31.5193 23.5157H26.1443C25.9661 23.5157 25.7952 23.4449 25.6692 23.3189C25.5432 23.1929 25.4725 23.022 25.4725 22.8438C25.4725 22.6656 25.5432 22.4947 25.6692 22.3687C25.7952 22.2427 25.9661 22.1719 26.1443 22.1719H31.5193C31.6975 22.1719 31.8684 22.2427 31.9944 22.3687C32.1204 22.4947 32.1912 22.6656 32.1912 22.8438C32.1912 23.022 32.1204 23.1929 31.9944 23.3189C31.8684 23.4449 31.6975 23.5157 31.5193 23.5157Z" fill="#524FFC"/>
<path d="M29.9211 11.6354C30.3436 11.8127 30.7205 12.0833 31.0236 12.4269C31.3267 12.7705 31.5481 13.1782 31.6713 13.6195C31.7216 13.7886 31.8364 13.9312 31.991 14.0163C32.1455 14.1015 32.3274 14.1224 32.4972 14.0746C32.6671 14.0268 32.8114 13.9141 32.8988 13.7608C32.9863 13.6076 33.0099 13.4261 32.9646 13.2555C32.7854 12.6179 32.4643 12.029 32.0253 11.5331C31.5863 11.0371 31.0408 10.6469 30.4296 10.3916C30.2647 10.3242 30.0797 10.325 29.9154 10.3939C29.7511 10.4628 29.6208 10.5942 29.5534 10.7591C29.4859 10.924 29.4867 11.109 29.5556 11.2733C29.6246 11.4377 29.7559 11.5679 29.9209 11.6354L29.9211 11.6354Z" fill="#524FFC"/>
<path d="M29.5037 5.375V4.03125C29.5037 3.85306 29.4329 3.68216 29.3069 3.55616C29.1809 3.43016 29.01 3.35938 28.8318 3.35938C28.6537 3.35938 28.4828 3.43016 28.3568 3.55616C28.2308 3.68216 28.16 3.85306 28.16 4.03125V5.375C28.16 5.55319 28.2308 5.72409 28.3568 5.85009C28.4828 5.97609 28.6537 6.04688 28.8318 6.04688C29.01 6.04688 29.1809 5.97609 29.3069 5.85009C29.4329 5.72409 29.5037 5.55319 29.5037 5.375Z" fill="#524FFC"/>
<path d="M25.0063 6.86029C25.1182 6.86008 25.2283 6.83194 25.3265 6.77842C25.4248 6.7249 25.5082 6.6477 25.5691 6.55381C25.63 6.45992 25.6665 6.35232 25.6752 6.24076C25.684 6.12921 25.6648 6.01722 25.6194 5.91496L25.0728 4.68736C25.0003 4.52457 24.8661 4.39724 24.6998 4.33338C24.5334 4.26952 24.3485 4.27437 24.1857 4.34685C24.0229 4.41933 23.8956 4.55351 23.8317 4.71987C23.7679 4.88623 23.7727 5.07114 23.8452 5.23393L24.3918 6.46153C24.4446 6.58033 24.5308 6.68125 24.6399 6.75203C24.749 6.82281 24.8763 6.86042 25.0063 6.86029Z" fill="#524FFC"/>
<path d="M21.8413 9.15917C21.9772 9.15922 22.1099 9.11805 22.222 9.0411C22.334 8.96414 22.42 8.85502 22.4688 8.72814C22.5175 8.60126 22.5266 8.46259 22.4948 8.33044C22.4631 8.19828 22.392 8.07886 22.291 7.98793L21.2925 7.08879C21.16 6.96956 20.9856 6.90783 20.8076 6.91719C20.6296 6.92654 20.4627 7.00622 20.3434 7.13868C20.2242 7.27114 20.1625 7.44555 20.1718 7.62352C20.1812 7.8015 20.2609 7.96847 20.3933 8.0877L21.3919 8.98634C21.5151 9.0977 21.6752 9.1593 21.8413 9.15917Z" fill="#524FFC"/>
<path d="M20.5248 12.0821C20.5799 11.9126 20.5654 11.7282 20.4845 11.5695C20.4036 11.4107 20.2629 11.2906 20.0934 11.2355L18.8154 10.8204C18.7314 10.7925 18.6426 10.7815 18.5543 10.7881C18.4659 10.7946 18.3798 10.8186 18.3007 10.8586C18.2217 10.8986 18.1513 10.9538 18.0937 11.021C18.0361 11.0883 17.9923 11.1663 17.9649 11.2506C17.9376 11.3348 17.9271 11.4236 17.9342 11.5119C17.9413 11.6002 17.9658 11.6862 18.0063 11.765C18.0467 11.8438 18.1024 11.9139 18.17 11.9711C18.2376 12.0283 18.3159 12.0716 18.4003 12.0984L19.6783 12.5137C19.7622 12.5411 19.8507 12.5516 19.9387 12.5447C20.0267 12.5379 20.1124 12.5137 20.1911 12.4736C20.2697 12.4336 20.3397 12.3784 20.3969 12.3112C20.4542 12.244 20.4977 12.1663 20.5248 12.0823V12.0821Z" fill="#524FFC"/>
<path d="M19.4068 15.0963L18.0704 15.2368C17.9822 15.2454 17.8966 15.2714 17.8185 15.3133C17.7404 15.3552 17.6713 15.4121 17.6153 15.4808C17.5593 15.5495 17.5174 15.6286 17.4921 15.7135C17.4667 15.7984 17.4585 15.8875 17.4677 15.9757C17.477 16.0638 17.5036 16.1493 17.546 16.2271C17.5885 16.3049 17.6459 16.3736 17.7149 16.4291C17.784 16.4846 17.8634 16.5259 17.9485 16.5507C18.0336 16.5754 18.1228 16.583 18.2108 16.5732L19.5473 16.4326C19.7237 16.413 19.8852 16.3244 19.9964 16.1861C20.1077 16.0478 20.1597 15.8712 20.1412 15.6946C20.1226 15.5181 20.035 15.3561 19.8974 15.244C19.7598 15.1319 19.5834 15.0788 19.4068 15.0963Z" fill="#524FFC"/>
<path d="M38.1162 16.4326L39.4526 16.5731C39.6293 16.5909 39.8059 16.5379 39.9437 16.4258C40.0815 16.3137 40.1692 16.1516 40.1878 15.9749C40.2064 15.7983 40.1543 15.6214 40.0428 15.4831C39.9314 15.3448 39.7697 15.2562 39.5932 15.2368L38.2567 15.0963C38.1687 15.0865 38.0796 15.0942 37.9946 15.119C37.9095 15.1437 37.8302 15.1851 37.7612 15.2406C37.6922 15.2961 37.6349 15.3648 37.5925 15.4425C37.5501 15.5203 37.5235 15.6057 37.5142 15.6938C37.505 15.7819 37.5132 15.8709 37.5385 15.9558C37.5638 16.0407 37.6056 16.1197 37.6616 16.1884C37.7175 16.2571 37.7865 16.314 37.8645 16.3559C37.9425 16.3978 38.0281 16.4239 38.1162 16.4326Z" fill="#524FFC"/>
<path d="M37.7774 12.5466C37.848 12.5465 37.9181 12.5354 37.9852 12.5135L39.2632 12.0983C39.3471 12.0711 39.4248 12.0276 39.4919 11.9703C39.559 11.913 39.6142 11.843 39.6542 11.7644C39.6943 11.6858 39.7185 11.6 39.7254 11.5121C39.7323 11.4241 39.7219 11.3357 39.6946 11.2517C39.6673 11.1678 39.6238 11.0901 39.5665 11.023C39.5092 10.9559 39.4392 10.9008 39.3606 10.8607C39.282 10.8207 39.1963 10.7965 39.1083 10.7895C39.0204 10.7826 38.9319 10.7931 38.848 10.8204L37.5701 11.2355C37.4178 11.2848 37.2881 11.3869 37.2044 11.5233C37.1207 11.6597 37.0884 11.8215 37.1134 11.9797C37.1384 12.1378 37.2191 12.2817 37.3408 12.3857C37.4625 12.4896 37.6174 12.5467 37.7774 12.5466Z" fill="#524FFC"/>
<path d="M36.2716 8.98633L37.2701 8.0877C37.4025 7.96845 37.4822 7.80148 37.4915 7.62352C37.5008 7.44556 37.4391 7.27119 37.3198 7.13876C37.2006 7.00633 37.0336 6.92669 36.8556 6.91736C36.6777 6.90804 36.5033 6.96979 36.3709 7.08904L35.3724 7.98792C35.2424 8.1078 35.1649 8.27408 35.1567 8.45071C35.1485 8.62734 35.2103 8.80008 35.3286 8.93146C35.447 9.06285 35.6123 9.14229 35.7889 9.15256C35.9654 9.16283 36.1388 9.1031 36.2716 8.98633Z" fill="#524FFC"/>
<path d="M32.6573 6.86029C32.7872 6.86035 32.9144 6.82271 33.0234 6.75194C33.1325 6.68116 33.2186 6.58028 33.2714 6.46153L33.818 5.23393C33.8905 5.07114 33.8953 4.88623 33.8315 4.71987C33.7676 4.55351 33.6403 4.41933 33.4775 4.34685C33.3147 4.27437 33.1298 4.26952 32.9634 4.33338C32.7971 4.39724 32.6629 4.52457 32.5904 4.68736L32.0438 5.91496C31.9984 6.01722 31.9792 6.12921 31.988 6.24076C31.9968 6.35232 32.0332 6.45992 32.0941 6.55381C32.155 6.6477 32.2384 6.7249 32.3367 6.77842C32.4349 6.83194 32.545 6.86008 32.6569 6.86029H32.6573Z" fill="#524FFC"/>
<path d="M39.6406 35.6094H30.9062V34.9375C30.9062 33.9288 29.5934 33.194 29.1911 32.9928C29.1566 32.9756 29.1207 32.9613 29.0837 32.9502L22.5077 30.9773C22.0916 30.6097 20.6041 29.3189 18.7855 28.0095C15.882 25.9192 13.6307 24.8594 12.0938 24.8594H6.71875V24.1875C6.71875 24.0093 6.64796 23.8384 6.52196 23.7124C6.39596 23.5864 6.22507 23.5156 6.04688 23.5156H2.01562C1.83743 23.5156 1.66654 23.5864 1.54054 23.7124C1.41454 23.8384 1.34375 24.0093 1.34375 24.1875V38.9688C1.34375 39.1469 1.41454 39.3178 1.54054 39.4438C1.66654 39.5698 1.83743 39.6406 2.01562 39.6406H6.04688C6.22507 39.6406 6.39596 39.5698 6.52196 39.4438C6.64796 39.3178 6.71875 39.1469 6.71875 38.9688V38.2969H8.70305C9.12221 38.3526 12.551 39.0296 15.5818 39.6279C21.644 40.8248 22.5004 40.9844 22.6895 40.9844H39.6406C40.175 40.9838 40.6873 40.7712 41.0652 40.3933C41.4431 40.0155 41.6556 39.5031 41.6562 38.9688V37.625C41.6556 37.0906 41.4431 36.5783 41.0652 36.2004C40.6873 35.8226 40.175 35.61 39.6406 35.6094ZM5.375 38.2969H2.6875V24.8594H5.375V38.2969ZM40.3125 38.9688C40.3123 39.1469 40.2415 39.3177 40.1155 39.4436C39.9895 39.5696 39.8188 39.6404 39.6406 39.6406H22.7208C22.3016 39.5849 18.8729 38.9079 15.8425 38.3096C9.77981 37.1127 8.92342 36.9531 8.73438 36.9531H6.71875V26.2031H12.0938C14.636 26.2031 19.9062 30.4436 21.7225 32.0776C21.7962 32.1439 21.8838 32.1931 21.9788 32.2217L28.6388 34.2198C29.0571 34.4386 29.4982 34.7903 29.5621 34.958V36.2812C29.5619 36.4498 29.4984 36.6122 29.3842 36.7362C29.27 36.8602 29.1135 36.9368 28.9455 36.9509L22.4106 35.6438L17.8021 33.0104C17.7255 32.9665 17.6409 32.9381 17.5534 32.9269C17.4658 32.9156 17.3768 32.9218 17.2916 32.945C17.2064 32.9681 17.1266 33.0079 17.0567 33.0619C16.9869 33.116 16.9284 33.1833 16.8846 33.26C16.8408 33.3366 16.8125 33.4212 16.8014 33.5088C16.7903 33.5964 16.7966 33.6853 16.8199 33.7705C16.8432 33.8557 16.883 33.9355 16.9372 34.0052C16.9913 34.075 17.0587 34.1334 17.1354 34.1771L21.8385 36.8646C21.9012 36.9005 21.9693 36.926 22.0401 36.9402L28.7589 38.2839C28.8022 38.2926 28.8464 38.2969 28.8906 38.2969C29.3073 38.2964 29.7137 38.167 30.054 37.9264C30.3942 37.6858 30.6517 37.3458 30.7911 36.9531H39.6406C39.8188 36.9533 39.9895 37.0242 40.1155 37.1501C40.2415 37.2761 40.3123 37.4469 40.3125 37.625V38.9688Z" fill="#524FFC"/>
</svg>
