<svg width="878" height="659" viewBox="0 0 878 659" fill="none" xmlns="http://www.w3.org/2000/svg">
<path d="M441.118 159.906H356.1V285.77H441.118V159.906Z" fill="#3EC1F3"/>
<path d="M331.193 159.906H356.1V285.77H300.26V190.863C300.26 182.653 303.519 174.779 309.32 168.973C315.121 163.168 322.989 159.906 331.193 159.906Z" fill="#3EC1F3"/>
<path d="M326.671 261.101C333.487 261.101 339.012 255.058 339.012 247.603C339.012 240.148 333.487 234.104 326.671 234.104C319.855 234.104 314.33 240.148 314.33 247.603C314.33 255.058 319.855 261.101 326.671 261.101Z" fill="#F4E6D8"/>
<path d="M344.028 247.894H309.314C309.313 251.344 310.339 254.716 312.261 257.58C314.184 260.444 316.916 262.67 320.108 263.973V268.367H333.234V263.973C336.426 262.67 339.158 260.444 341.081 257.58C343.003 254.716 344.029 251.344 344.028 247.894Z" fill="#4756DF"/>
<path d="M299.617 214.175L355.041 191.659" stroke="#4756DF" stroke-width="4" stroke-miterlimit="10" stroke-linecap="round"/>
<path d="M355.096 159.906V285.77" stroke="#4756DF" stroke-width="4" stroke-miterlimit="10"/>
<path d="M667.5 490.17V441.843L638.323 412.139H556.323L527.146 441.843V486.65H425.023V468.016C392.323 464.491 402.382 440.327 384.273 440.327H352.078C349.732 440.318 347.432 440.986 345.455 442.25L300.002 414.138H253.221L194.614 450.383H194.74V496.018L155.379 520.363V562.149H696.677V519.863L667.5 490.17Z" fill="#F5EBDD"/>
<path d="M716.3 562.16H684.604C684.604 553.406 691.699 544.543 700.452 544.543C709.205 544.543 716.3 553.406 716.3 562.16Z" fill="#FFB7D5"/>
<path d="M732.801 562.16H709.254C709.254 555.658 714.527 549.073 721.025 549.073C727.522 549.073 732.801 555.658 732.801 562.16Z" fill="#FFB7D5"/>
<path d="M270.243 350.731C285.608 345.97 305.363 339.127 365.479 388.327C425.594 437.527 448.34 405.351 442.188 397.915C437.25 391.929 409.669 408.08 430.198 429.855C449.706 450.558 506.88 430.755 522.558 418.081C544.87 400.046 576.813 385.861 604.969 384.84" stroke="#FFB7D5" stroke-width="4" stroke-linecap="round" stroke-linejoin="round" stroke-dasharray="12 12"/>
<path d="M311.833 450.393L253.221 414.148" stroke="#FFB7D5" stroke-width="4" stroke-linecap="round" stroke-linejoin="round"/>
<path d="M195.289 450.394H311.959V561.611" stroke="#FFB7D5" stroke-width="4" stroke-linecap="round" stroke-linejoin="round"/>
<path d="M193.231 561.82L193.78 496.568" stroke="#FFB7D5" stroke-width="4" stroke-linecap="round" stroke-linejoin="round"/>
<path d="M155.927 520.374H193.105" stroke="#FFB7D5" stroke-width="4" stroke-linecap="round" stroke-linejoin="round"/>
<path d="M193.862 512.57H311.075" stroke="#FFB7D5" stroke-width="4" stroke-linecap="round" stroke-linejoin="round"/>
<path d="M525.884 529.188H608.893" stroke="#FFB7D5" stroke-width="4" stroke-linecap="round" stroke-linejoin="round"/>
<path d="M311.833 450.394H339.182" stroke="#FFB7D5" stroke-width="4" stroke-linecap="round" stroke-linejoin="round"/>
<path d="M527.695 441.837H609.146V561.611" stroke="#FFB7D5" stroke-width="4" stroke-linecap="round" stroke-linejoin="round"/>
<path d="M609.145 561.061V441.837H666.402" stroke="#FFB7D5" stroke-width="4" stroke-linecap="round" stroke-linejoin="round"/>
<path d="M393.328 469.021H424.475" stroke="#FFB7D5" stroke-width="4" stroke-linecap="round" stroke-linejoin="round"/>
<path d="M638.323 561.611V519.874H695.815" stroke="#FFB7D5" stroke-width="4" stroke-linecap="round" stroke-linejoin="round"/>
<path d="M638.004 412.457L609.146 441.837" stroke="#FFB7D5" stroke-width="4" stroke-linecap="round" stroke-linejoin="round"/>
<path d="M609.146 490.17L638.323 519.874" stroke="#FFB7D5" stroke-width="4" stroke-linecap="round" stroke-linejoin="round"/>
<path d="M666.654 488.912H609.398" stroke="#FFB7D5" stroke-width="4" stroke-linecap="round" stroke-linejoin="round"/>
<path d="M352.693 441.332C334.584 441.332 344.642 465.496 311.942 469.021H393.454C360.737 465.501 370.801 441.332 352.693 441.332Z" stroke="#FFB7D5" stroke-width="4" stroke-linecap="round" stroke-linejoin="round"/>
<path d="M311.942 561.062V469.027H393.437V561.611" stroke="#FFB7D5" stroke-width="4" stroke-linecap="round" stroke-linejoin="round"/>
<path d="M393.328 561.062V495.705H525.889V561.611" stroke="#FFB7D5" stroke-width="4" stroke-linecap="round" stroke-linejoin="round"/>
<path d="M393.564 494.475L424.184 485.634" stroke="#FFB7D5" stroke-width="4" stroke-linecap="round" stroke-linejoin="round"/>
<path d="M525.889 487.193V495.705H393.328" stroke="#FFB7D5" stroke-width="4" stroke-linecap="round" stroke-linejoin="round"/>
<path d="M419.662 510.813H419.794C422.175 510.813 424.458 511.759 426.142 513.444C427.825 515.129 428.771 517.414 428.771 519.797V562.165H410.663V519.797C410.663 518.615 410.895 517.445 411.348 516.354C411.801 515.262 412.464 514.271 413.3 513.436C414.136 512.602 415.128 511.941 416.22 511.49C417.311 511.04 418.481 510.81 419.662 510.813Z" fill="#FFB7D5"/>
<path d="M500.658 510.813H500.811C503.192 510.813 505.476 511.76 507.159 513.444C508.843 515.129 509.789 517.415 509.789 519.797V562.166H491.68V519.797C491.68 517.415 492.626 515.129 494.309 513.444C495.993 511.76 498.277 510.813 500.658 510.813Z" fill="#FFB7D5"/>
<path d="M460.16 510.813H460.314C462.695 510.813 464.978 511.76 466.662 513.444C468.345 515.129 469.291 517.415 469.291 519.797V562.166H451.182V519.797C451.182 517.415 452.128 515.129 453.812 513.444C455.495 511.76 457.779 510.813 460.16 510.813Z" fill="#FFB7D5"/>
<path d="M668.432 531.451H668.586C670.967 531.451 673.251 532.397 674.934 534.082C676.618 535.767 677.564 538.052 677.564 540.435V562.16H659.455V540.435C659.455 538.052 660.401 535.767 662.084 534.082C663.768 532.397 666.051 531.451 668.432 531.451Z" fill="#FFB7D5"/>
<path d="M218.814 531.451H218.951C221.332 531.451 223.616 532.397 225.299 534.082C226.983 535.767 227.929 538.052 227.929 540.435V562.16H209.82V540.435C209.82 539.255 210.052 538.087 210.503 536.997C210.955 535.907 211.616 534.916 212.45 534.082C213.283 533.248 214.273 532.586 215.362 532.135C216.451 531.683 217.619 531.451 218.798 531.451H218.814Z" fill="#FFB7D5"/>
<path d="M287.732 531.451H287.885C289.065 531.449 290.234 531.681 291.324 532.131C292.415 532.582 293.406 533.244 294.24 534.078C295.075 534.913 295.737 535.904 296.189 536.994C296.641 538.085 296.874 539.254 296.874 540.435V562.16H278.765V540.435C278.765 538.054 279.709 535.771 281.391 534.086C283.072 532.401 285.352 531.454 287.732 531.451Z" fill="#FFB7D5"/>
<path d="M253.27 531.451H253.424C255.805 531.451 258.088 532.397 259.772 534.082C261.455 535.767 262.401 538.052 262.401 540.435V562.16H244.293V540.435C244.293 538.052 245.238 535.767 246.922 534.082C248.606 532.397 250.889 531.451 253.27 531.451Z" fill="#FFB7D5"/>
<path d="M227.94 466.506H209.831V497.216H227.94V466.506Z" fill="#FFB7D5"/>
<path d="M296.863 466.506H278.754V497.216H296.863V466.506Z" fill="#FFB7D5"/>
<path d="M262.401 466.506H244.293V497.216H262.401V466.506Z" fill="#FFB7D5"/>
<path d="M345.894 484.629H330.847V507.282H345.894V484.629Z" fill="#FFB7D5"/>
<path d="M374.527 484.629H359.481V507.282H374.527V484.629Z" fill="#FFB7D5"/>
<path d="M345.894 524.405H330.847V547.058H345.894V524.405Z" fill="#FFB7D5"/>
<path d="M374.527 524.405H359.481V547.058H374.527V524.405Z" fill="#FFB7D5"/>
<path d="M560.707 454.424H545.661V477.077H560.707V454.424Z" fill="#FFB7D5"/>
<path d="M589.341 454.424H574.294V477.077H589.341V454.424Z" fill="#FFB7D5"/>
<path d="M647.196 454.424H632.149V477.077H647.196V454.424Z" fill="#FFB7D5"/>
<path d="M560.707 494.195H545.661V516.848H560.707V494.195Z" fill="#FFB7D5"/>
<path d="M589.341 494.195H574.294V516.848H589.341V494.195Z" fill="#FFB7D5"/>
<path d="M273.096 322.267C273.096 333.597 261.024 346.683 256.239 346.683C251.454 346.683 239.387 333.597 239.387 322.267C239.466 317.847 241.277 313.634 244.429 310.536C247.582 307.437 251.823 305.701 256.242 305.701C260.66 305.701 264.901 307.437 268.054 310.536C271.206 313.634 273.017 317.847 273.096 322.267Z" fill="#FFB7D5"/>
<path d="M256.239 327.556C259.157 327.556 261.523 325.188 261.523 322.267C261.523 319.347 259.157 316.979 256.239 316.979C253.32 316.979 250.954 319.347 250.954 322.267C250.954 325.188 253.32 327.556 256.239 327.556Z" fill="white"/>
<path d="M641.341 359.474C641.341 370.803 629.268 383.889 624.489 383.889C619.709 383.889 607.636 370.803 607.636 359.474C607.636 355.001 609.412 350.711 612.572 347.548C615.733 344.385 620.019 342.609 624.489 342.609C628.958 342.609 633.244 344.385 636.405 347.548C639.565 350.711 641.341 355.001 641.341 359.474Z" fill="#FFB7D5"/>
<path d="M624.489 364.762C627.407 364.762 629.773 362.394 629.773 359.474C629.773 356.553 627.407 354.185 624.489 354.185C621.57 354.185 619.204 356.553 619.204 359.474C619.204 362.394 621.57 364.762 624.489 364.762Z" fill="white"/>
<path d="M139.679 562.16H171.375C171.375 553.406 164.279 544.543 155.527 544.543C146.774 544.543 139.679 553.406 139.679 562.16Z" fill="#FFB7D5"/>
<path d="M123.178 562.16H146.725C146.725 555.658 141.451 549.073 134.954 549.073C128.457 549.073 123.178 555.658 123.178 562.16Z" fill="#FFB7D5"/>
<path d="M410.35 250.42C371.295 274.314 357.714 340.873 349.438 365.157C340.488 391.419 320.777 390.82 297.905 398.464C275.033 406.109 275.884 422.776 275.884 422.776C270.538 426.421 265.43 430.403 260.59 434.698L289.548 471.734C296.38 467.017 306.521 461.102 320.432 452.695C349.164 435.325 374.884 419.014 391.484 400.892C408.083 382.769 451.709 303.305 451.709 303.305L410.35 250.42Z" fill="#4856DF"/>
<path d="M289.548 471.734L260.585 434.704C247.634 446.236 239.875 457.22 235.973 463.612L276.806 515.816C282.557 505.382 277.986 490.697 278.452 484.288C278.765 480.427 282.266 476.764 289.548 471.734Z" fill="#30242A"/>
<path d="M232.802 469.367L272.948 520.698C274.494 519.3 275.792 517.652 276.789 515.821L235.963 463.617C234.806 465.476 233.751 467.395 232.802 469.367Z" fill="#3EC1F3"/>
<path d="M274.699 473.931L282.475 478.264" stroke="white" stroke-width="4" stroke-linecap="round" stroke-linejoin="round"/>
<path d="M271.236 481.762L279.028 483.53" stroke="white" stroke-width="4" stroke-linecap="round" stroke-linejoin="round"/>
<path d="M285.141 437.532L271.269 448.384" stroke="#3EC1F3" stroke-width="4" stroke-miterlimit="10" stroke-linecap="round"/>
<path d="M278.117 428.542L264.245 439.394" stroke="#3EC1F3" stroke-width="4" stroke-miterlimit="10" stroke-linecap="round"/>
<path d="M292.165 446.522L278.293 457.374" stroke="#3EC1F3" stroke-width="4" stroke-miterlimit="10" stroke-linecap="round"/>
<path d="M299.189 455.512L285.317 466.363" stroke="#3EC1F3" stroke-width="4" stroke-miterlimit="10" stroke-linecap="round"/>
<path d="M274.627 423.254L305.067 462.223" stroke="#3EC1F3" stroke-width="4" stroke-miterlimit="10" stroke-linecap="round"/>
<path d="M422.439 353.927C415.826 343.493 409.357 331.96 404.44 320.06" stroke="#30242A" stroke-width="4" stroke-linecap="round" stroke-linejoin="round"/>
<path d="M433.32 104.023C435.96 104.023 438.1 101.882 438.1 99.2399C438.1 96.5982 435.96 94.4567 433.32 94.4567C430.681 94.4567 428.541 96.5982 428.541 99.2399C428.541 101.882 430.681 104.023 433.32 104.023Z" fill="#4756DF"/>
<path d="M448.493 168.968L448.164 163.41C454.557 164.212 459.293 163.262 462.679 161.526L448.164 149.835C448.164 149.835 453.191 147.825 450.173 137.248L466.328 131.372C465.477 129.175 464.912 123.881 463.282 118.192L453.663 122.382C451.417 126.695 448.196 130.424 444.257 133.272C442.63 131.587 440.812 130.098 438.841 128.835C438.577 128.664 438.292 128.505 438.029 128.346H438.001C437.732 128.192 437.452 128.044 437.184 127.901H437.14C436.865 127.764 436.591 127.626 436.311 127.506L436.256 127.407C435.987 127.28 435.707 127.171 435.428 127.061H435.351C435.071 126.962 434.802 126.868 434.517 126.781H434.423C434.149 126.698 433.875 126.627 433.589 126.566H433.491C433.211 126.506 432.942 126.462 432.656 126.429H432.547C432.272 126.402 431.998 126.385 431.718 126.38C429.32 126.347 426.944 127.324 424.963 130.098C423.78 131.705 423.139 133.648 423.13 135.644C423.169 141.548 428.656 147.177 433.556 148.824C429.682 157.001 417.165 162.103 412.364 163.8C412.517 165.673 412.665 167.413 412.797 168.968H448.493Z" fill="#EAA58B"/>
<path d="M546.138 202.697C543.866 202.697 542.769 200.852 543.685 198.579L551.368 179.594L551.307 179.539L551.439 179.413C553.562 177.416 555.539 175.269 557.354 172.987C560.823 168.567 561.865 165.354 560.647 164.041C560.298 163.689 559.835 163.471 559.341 163.426C558.839 163.366 558.329 163.395 557.837 163.514C553.919 164.371 547.208 169.714 539.729 178.529C530.68 189.177 513.081 210.248 513.081 210.248C511.248 208.848 508.587 206.476 505.399 203.614L480.079 236.191C485.505 240.417 491.297 244.15 497.387 247.345C498.536 243.786 500.729 240.655 503.68 238.36C506.631 236.066 510.205 234.714 513.935 234.48C517.665 234.246 521.379 235.141 524.593 237.048C527.808 238.956 530.374 241.788 531.958 245.175C547.214 233.769 559.264 213.417 564.911 202.697H546.138Z" fill="#EAA58B"/>
<path d="M462.251 176.013H454.513C469.269 184.91 462.744 201.692 462.744 201.692C462.744 201.692 482.9 215.79 469.291 232.907C470.29 231.856 471.136 230.669 471.804 229.381C471.804 229.381 475.053 232.369 480.036 236.191L505.355 203.615C493.595 193.114 474.504 176.013 462.251 176.013Z" fill="#FFB7D5"/>
<path d="M384.778 203.192C384.778 203.192 369.962 215.553 379.976 232.105L385.25 202.45L384.778 203.192Z" fill="#FF7235"/>
<path d="M412.775 168.968V169.149L413.412 168.968H412.775Z" fill="#FF7235"/>
<path d="M433.513 148.824C428.634 147.177 423.147 141.564 423.086 135.644L410.514 141.136C411.003 148.066 411.711 156.804 412.298 163.8C417.143 162.103 429.671 157.001 433.513 148.824Z" fill="#30242A"/>
<path d="M448.164 149.835L462.679 161.526C465.554 160.14 467.832 157.761 469.093 154.827C471.234 149.467 469.851 144.854 468.183 138.868C468.183 138.868 472.435 136.018 471.771 133.376C471.223 131.229 466.377 131.525 466.377 131.525L466.328 131.388L450.173 137.264C453.191 147.825 448.164 149.835 448.164 149.835Z" fill="#30242A"/>
<path d="M444.257 133.261C448.196 130.413 451.417 126.684 453.663 122.371L438.846 128.824C440.816 130.088 442.631 131.577 444.257 133.261Z" fill="#30242A"/>
<path d="M436.311 127.456L436.256 127.407L436.311 127.456Z" fill="#4756DF"/>
<path d="M424.952 130.043C426.933 127.269 429.309 126.292 431.707 126.325H431.652C430.275 111.085 433.672 102.798 436.19 98.8665C433.775 99.2234 431.39 99.7631 429.057 100.481C411.601 105.769 409.598 122.997 410.086 133.244C410.18 135.298 410.355 138.033 410.569 141.119L423.141 135.628C423.135 133.621 423.769 131.664 424.952 130.043Z" fill="#4756DF"/>
<path d="M438.001 128.318C437.732 128.165 437.452 128.016 437.184 127.874C437.463 128.016 437.732 128.165 438.001 128.318Z" fill="#3EC1F3"/>
<path d="M438.841 128.824C438.578 128.653 438.292 128.494 438.029 128.335C438.303 128.505 438.578 128.653 438.841 128.824Z" fill="#3EC1F3"/>
<path d="M434.413 126.753C434.138 126.671 433.864 126.599 433.578 126.539C433.858 126.599 434.138 126.671 434.413 126.753Z" fill="#3EC1F3"/>
<path d="M437.14 127.852C436.865 127.714 436.591 127.577 436.311 127.456C436.591 127.577 436.865 127.714 437.14 127.852Z" fill="#3EC1F3"/>
<path d="M432.536 126.374C432.261 126.347 431.987 126.33 431.707 126.325C431.982 126.308 432.261 126.347 432.536 126.374Z" fill="#3EC1F3"/>
<path d="M433.48 126.523C433.2 126.462 432.931 126.418 432.645 126.385C432.925 126.418 433.2 126.462 433.48 126.523Z" fill="#3EC1F3"/>
<path d="M435.34 127.055C435.06 126.956 434.791 126.863 434.506 126.775C434.786 126.858 435.06 126.956 435.34 127.055Z" fill="#3EC1F3"/>
<path d="M436.256 127.407C435.987 127.28 435.708 127.171 435.428 127.061C435.708 127.192 435.976 127.302 436.256 127.407Z" fill="#3EC1F3"/>
<path d="M431.652 126.308H431.707C431.982 126.308 432.256 126.308 432.536 126.358H432.645C432.925 126.391 433.194 126.435 433.48 126.495H433.578C433.858 126.555 434.127 126.627 434.412 126.709H434.506C434.786 126.797 435.055 126.89 435.34 126.989H435.417C435.697 127.099 435.965 127.209 436.245 127.335L436.311 127.363C436.591 127.484 436.86 127.621 437.14 127.758H437.184C437.464 127.901 437.732 128.049 438.001 128.203H438.029C438.303 128.362 438.578 128.521 438.841 128.692L453.657 122.239L463.277 118.049C460.341 107.801 453.948 96.225 436.185 98.7512C433.672 102.793 430.275 111.08 431.652 126.308Z" fill="#3EC1F3"/>
<path d="M515.068 234.417C511.127 234.418 507.289 235.671 504.105 237.994C500.921 240.317 498.555 243.591 497.349 247.345C505.426 251.452 513.97 253.979 520.605 251.535C524.669 249.969 528.487 247.828 531.942 245.175C530.445 241.96 528.062 239.24 525.073 237.334C522.083 235.428 518.612 234.416 515.068 234.417Z" fill="#CA7358"/>
<path d="M464.791 265.379C482.9 253.545 470.279 233.396 469.291 232.907C482.873 215.79 462.75 201.692 462.75 201.692C462.75 201.692 469.269 184.91 454.519 176.013H448.91L448.493 168.968H413.428L412.792 169.149L413.384 176.013H402.069L385.25 202.456L379.977 232.111L380.245 232.556C380.066 232.889 379.883 233.224 379.697 233.561C376.294 240.26 375.795 245.961 376.668 250.585C378.484 260.256 386.265 265.352 386.265 265.352H464.791V265.379Z" fill="#FF7235"/>
<path d="M386.287 274.204H464.764V267.142V265.379H386.287V267.142V274.204Z" fill="#30242A"/>
<path d="M378.089 201.692H462.75" stroke="#A15842" stroke-width="4" stroke-miterlimit="10" stroke-linecap="round"/>
<path d="M380.108 232.907H469.73" stroke="#A15842" stroke-width="4" stroke-miterlimit="10" stroke-linecap="round"/>
<path d="M450.173 179.539L449.986 176.563" stroke="#A15842" stroke-width="4" stroke-miterlimit="10" stroke-linecap="round"/>
<path d="M440.613 178.029L440.114 169.973" stroke="#A15842" stroke-width="4" stroke-miterlimit="10" stroke-linecap="round"/>
<path d="M433.068 178.029L432.569 169.973" stroke="#A15842" stroke-width="4" stroke-miterlimit="10" stroke-linecap="round"/>
<path d="M425.523 178.029L425.023 169.973" stroke="#A15842" stroke-width="4" stroke-miterlimit="10" stroke-linecap="round"/>
<path d="M512.028 209.826L506.013 217.3" stroke="#A15842" stroke-width="4" stroke-linecap="round" stroke-linejoin="round"/>
<path d="M441.118 162.927C443.343 163.705 445.647 164.234 447.989 164.503" stroke="#A15842" stroke-width="4" stroke-miterlimit="10" stroke-linecap="round"/>
<path d="M557.354 172.987C557.382 174.465 558.452 175.508 560.137 175.508H576.55C578.822 175.508 581.412 173.663 582.333 171.384L587.338 158.984C588.254 156.71 587.157 154.865 584.885 154.865H568.467C566.195 154.865 563.605 156.71 562.688 158.984L560.647 164.042C561.865 165.36 560.822 168.594 557.354 172.987Z" fill="#F5EBDD"/>
<path d="M591.152 146.814H586.718L586.328 147.775C586.021 148.491 585.523 149.108 584.889 149.56C584.256 150.012 583.51 150.282 582.734 150.34H574.272C572.862 150.34 572.176 149.192 572.747 147.775L573.136 146.814H568.703C566.425 146.814 563.841 148.659 562.919 150.938L557.837 163.52C558.329 163.401 558.838 163.371 559.341 163.432C559.835 163.477 560.298 163.695 560.647 164.047L562.688 158.989C563.605 156.716 566.195 154.87 568.467 154.87H584.885C587.157 154.87 588.255 156.716 587.338 158.989L582.334 171.389C581.412 173.668 578.822 175.514 576.55 175.514H560.137C558.43 175.514 557.393 174.47 557.354 172.993C555.534 175.273 553.551 177.418 551.422 179.413L551.351 179.594L543.669 198.579C542.752 200.852 543.85 202.697 546.122 202.697H568.576C570.848 202.697 573.438 200.852 574.355 198.579L593.561 150.938C594.527 148.659 593.429 146.814 591.152 146.814ZM569.202 195.141C568.903 195.836 568.419 196.437 567.803 196.876C567.191 197.352 566.447 197.624 565.673 197.656H553.14C551.746 197.656 551.077 196.53 551.636 195.141C551.941 194.439 552.431 193.834 553.054 193.391C553.677 192.948 554.408 192.683 555.17 192.626H567.748C569.109 192.631 569.778 193.757 569.218 195.146L569.202 195.141Z" fill="#4756DF"/>
<path d="M567.72 192.631H555.143C554.381 192.689 553.649 192.954 553.026 193.397C552.404 193.84 551.914 194.445 551.609 195.146C551.06 196.536 551.719 197.662 553.113 197.662H565.69C566.463 197.63 567.208 197.357 567.819 196.882C568.435 196.442 568.919 195.842 569.218 195.146C569.778 193.757 569.109 192.631 567.72 192.631Z" fill="#3EC1F3"/>
<path d="M574.272 150.34H582.734C583.51 150.282 584.256 150.012 584.889 149.56C585.523 149.108 586.021 148.491 586.328 147.775L586.718 146.814H573.136L572.747 147.775C572.176 149.192 572.862 150.34 574.272 150.34Z" fill="#3EC1F3"/>
<path d="M475.832 113.59L442.128 128.692" stroke="#30242A" stroke-width="4" stroke-linecap="round" stroke-linejoin="round"/>
<path d="M465.005 145.09C463.995 145.359 460.692 144.804 460.149 141.965" stroke="black" stroke-width="4" stroke-miterlimit="10" stroke-linecap="round"/>
<path d="M459.809 130.729C460.706 130.729 461.433 130.001 461.433 129.104C461.433 128.206 460.706 127.478 459.809 127.478C458.912 127.478 458.184 128.206 458.184 129.104C458.184 130.001 458.912 130.729 459.809 130.729Z" fill="#30242A"/>
<path d="M431.927 136.479L437.826 140.235" stroke="#A15842" stroke-width="4" stroke-miterlimit="10" stroke-linecap="round"/>
<path d="M444.641 132.217L451.182 137.248" stroke="#30242A" stroke-width="4" stroke-linecap="round" stroke-linejoin="round"/>
<path d="M432.064 149.335L449.673 149.835" stroke="#30242A" stroke-width="4" stroke-linecap="round" stroke-linejoin="round"/>
<path d="M500.46 267.142C502.461 267.142 504.38 267.938 505.795 269.354C507.21 270.77 508.005 272.691 508.005 274.693V274.693C508.008 275.687 507.815 276.672 507.437 277.591C507.06 278.51 506.504 279.345 505.803 280.049C505.103 280.753 504.27 281.311 503.353 281.693C502.436 282.074 501.453 282.271 500.46 282.272" stroke="#FF7235" stroke-width="4" stroke-miterlimit="10"/>
<path d="M511.045 267.142C513.043 267.148 514.956 267.946 516.367 269.362C517.777 270.777 518.569 272.694 518.569 274.693C518.575 276.696 517.785 278.62 516.375 280.041C514.964 281.462 513.047 282.265 511.045 282.272" stroke="#FF7235" stroke-width="4" stroke-miterlimit="10"/>
<path d="M565.432 268.147H482.318C478.736 268.147 475.832 271.053 475.832 274.638V274.748C475.832 278.333 478.736 281.239 482.318 281.239H565.432C569.014 281.239 571.918 278.333 571.918 274.748V274.638C571.918 271.053 569.014 268.147 565.432 268.147Z" fill="#30242A"/>
<path d="M579.371 547.194L529.31 268.478L516.435 270.794L566.495 549.51L579.371 547.194Z" fill="#30242A"/>
<path d="M482.428 268.147H482.318C478.736 268.147 475.832 271.053 475.832 274.638V274.748C475.832 278.333 478.736 281.239 482.318 281.239H482.428C486.01 281.239 488.914 278.333 488.914 274.748V274.638C488.914 271.053 486.01 268.147 482.428 268.147Z" stroke="#FF7235" stroke-width="4" stroke-miterlimit="10"/>
<path d="M545.216 267.554C546.697 268.07 547.982 269.034 548.89 270.313C549.799 271.593 550.287 273.124 550.287 274.693V274.693C550.286 276.16 549.859 277.595 549.057 278.823C548.255 280.051 547.113 281.018 545.77 281.607" stroke="#FF7235" stroke-width="4" stroke-miterlimit="10" stroke-linecap="round"/>
<path d="M553.996 267.554C555.477 268.07 556.762 269.034 557.67 270.313C558.579 271.593 559.067 273.124 559.066 274.693V274.693C559.066 276.16 558.639 277.595 557.837 278.823C557.035 280.051 555.893 281.018 554.55 281.607" stroke="#FF7235" stroke-width="4" stroke-miterlimit="10" stroke-linecap="round"/>
<path d="M572.922 549.073H389.305V562.165H572.922V549.073Z" fill="#30242A"/>
<path d="M400.62 578.272C409.512 578.272 416.721 571.059 416.721 562.16C416.721 553.261 409.512 546.047 400.62 546.047C391.728 546.047 384.52 553.261 384.52 562.16C384.52 571.059 391.728 578.272 400.62 578.272Z" fill="#30242A"/>
<path d="M400.62 568.201C403.954 568.201 406.657 565.496 406.657 562.16C406.657 558.824 403.954 556.119 400.62 556.119C397.287 556.119 394.584 558.824 394.584 562.16C394.584 565.496 397.287 568.201 400.62 568.201Z" fill="#FFB7D5"/>
<path d="M575.776 578.272C584.668 578.272 591.876 571.059 591.876 562.16C591.876 553.261 584.668 546.047 575.776 546.047C566.884 546.047 559.676 553.261 559.676 562.16C559.676 571.059 566.884 578.272 575.776 578.272Z" fill="#30242A"/>
<path d="M575.776 568.201C579.11 568.201 581.812 565.496 581.812 562.16C581.812 558.824 579.11 556.119 575.776 556.119C572.442 556.119 569.74 558.824 569.74 562.16C569.74 565.496 572.442 568.201 575.776 568.201Z" fill="#FFB7D5"/>
<path d="M425.775 562.16H375.471C375.569 555.549 378.262 549.241 382.968 544.6C387.674 539.959 394.016 537.358 400.623 537.358C407.23 537.358 413.572 539.959 418.278 544.6C422.985 549.241 425.678 555.549 425.775 562.16Z" fill="#FF7235"/>
<path d="M600.925 562.16H550.621C550.719 555.549 553.412 549.241 558.118 544.6C562.824 539.959 569.166 537.358 575.773 537.358C582.38 537.358 588.722 539.959 593.428 544.6C598.135 549.241 600.827 555.549 600.925 562.16Z" fill="#FF7235"/>
<path d="M450.326 505.272H497.376C497.925 497.034 499.483 485.535 501.398 469.741C505.437 436.39 508.466 406.07 504.427 381.819C500.389 357.568 464.764 274.182 464.764 274.182H397.668C392.4 319.681 436.399 371.418 450.403 392.907C465.549 416.153 452.927 431.31 444.85 454.046C436.772 476.781 450.403 486.386 450.403 486.386C449.985 492.674 449.96 498.981 450.326 505.272Z" fill="#4856DF"/>
<path d="M457.932 543.032H524.177C519.496 532.049 505.141 526.618 500.389 522.29C497.464 519.632 496.783 514.448 497.376 505.266H450.326C451.352 522.839 455.265 535.926 457.932 543.032Z" fill="#30242A"/>
<path d="M460.5 549.073H525.637C525.495 546.991 525.002 544.949 524.177 543.032H457.932C458.679 545.091 459.536 547.107 460.5 549.073Z" fill="#3EC1F3"/>
<path d="M468.622 488.154V504.684" stroke="#3EC1F3" stroke-width="4" stroke-miterlimit="10" stroke-linecap="round"/>
<path d="M457.219 488.154V504.684" stroke="#3EC1F3" stroke-width="4" stroke-miterlimit="10" stroke-linecap="round"/>
<path d="M480.025 488.154V504.684" stroke="#3EC1F3" stroke-width="4" stroke-miterlimit="10" stroke-linecap="round"/>
<path d="M491.427 488.154V504.684" stroke="#3EC1F3" stroke-width="4" stroke-miterlimit="10" stroke-linecap="round"/>
<path d="M450.524 487.649H498.814" stroke="#3EC1F3" stroke-width="4" stroke-miterlimit="10" stroke-linecap="round"/>
<path d="M480.842 313.267C479.196 309.192 477.627 305.249 476.117 301.542L451.424 297.204V297.291C450.936 300.071 451.571 302.931 453.19 305.242C454.809 307.553 457.278 309.126 460.056 309.615L480.842 313.267Z" fill="#3EC1F3"/>
<path d="M489.919 518.864L497.716 515.667" stroke="white" stroke-width="4" stroke-linecap="round" stroke-linejoin="round"/>
<path d="M493.946 526.42L500.46 521.159" stroke="white" stroke-width="4" stroke-linecap="round" stroke-linejoin="round"/>
<path d="M574.936 197.151C574.936 197.151 583.574 197.491 584.265 189.94C584.265 189.94 590.433 187.101 588.82 181.461C588.82 181.461 594.461 179.847 592.848 174.201C592.743 173.844 596.052 173.202 595.888 168.55C595.646 161.762 591.048 156.875 589.039 156.37C583.003 154.859 585.297 164.673 585.011 164.426C581.494 161.405 576.358 160.033 574.525 161.57C571.331 164.25 573.548 167.831 573.548 167.831C573.548 167.831 569.454 166.864 567.451 169.824C565.015 173.416 569.372 176.766 569.372 176.766C569.372 176.766 564.807 177.276 565.569 181.505C566.414 186.233 573.51 187.288 576.873 192.241L574.936 197.151Z" fill="#EAA58B"/>
<path d="M569.185 175.898C573.993 177.705 582.355 181.708 584.732 188.315" stroke="#A15842" stroke-width="4" stroke-linecap="round" stroke-linejoin="round"/>
<path d="M574.574 167.496C578.69 169.742 585.961 174.355 589.237 180.374" stroke="#A15842" stroke-width="4" stroke-linecap="round" stroke-linejoin="round"/>
<path d="M585.791 163.652C588.496 166.057 591.432 169.259 593.226 172.987" stroke="#A15842" stroke-width="4" stroke-linecap="round" stroke-linejoin="round"/>
<path d="M413.45 176.013C413.45 176.013 431.482 203.192 426.532 229.381C423.009 248.009 380.75 264.149 356.1 269.641V255.055C356.1 255.055 407.414 242.474 413.45 219.815C417.11 206.086 402.382 176.013 402.382 176.013" fill="#F5EBDD"/>
<path d="M532.677 264.149C529.659 256.593 520.1 248.542 509.031 244.511C487.762 236.773 436.086 248.037 436.086 248.037L428.343 231.49L390.244 250.162C395.731 260.876 402.316 269.882 409.044 276.11C411.334 273.271 414.408 271.169 417.883 270.064C421.357 268.959 425.08 268.9 428.587 269.895C432.095 270.89 435.234 272.894 437.613 275.659C439.992 278.423 441.506 281.827 441.969 285.446C463.035 283.798 486.335 274.16 492.942 268.213C492.942 268.213 496.964 271.739 501.492 272.238C501.492 273.749 494.451 293.887 507.028 289.356C507.028 289.356 510.546 293.887 515.578 288.856C515.578 288.856 519.101 293.887 524.133 289.356C524.133 289.356 526.877 291.075 530.669 286.841C535.19 281.722 536.529 273.754 532.677 264.149Z" fill="#EAA58B"/>
<path d="M402.382 176.013H401.136C390.924 176.013 374.204 183.57 376.218 203.142C377.985 219.526 382.737 235.448 390.238 250.118L428.338 231.446L402.382 176.013Z" fill="#FFB7D5"/>
<path d="M423.514 269.152C420.739 269.15 417.999 269.77 415.495 270.967C412.991 272.163 410.787 273.905 409.044 276.066C410.438 277.368 411.903 278.591 413.434 279.729C420.518 284.913 430.928 286.242 441.969 285.38C441.389 280.893 439.195 276.77 435.799 273.784C432.403 270.797 428.036 269.151 423.514 269.152Z" fill="#CA7358"/>
<path d="M507.468 288.51C509.663 284.117 514.645 272.727 511.045 265.127" stroke="#A15842" stroke-width="4" stroke-linecap="round" stroke-linejoin="round"/>
<path d="M423.009 249.519L434.868 247.087" stroke="#A15842" stroke-width="4" stroke-linecap="round" stroke-linejoin="round"/>
<path d="M516.374 288.312C518.657 283.678 523.595 272.502 520.1 265.127" stroke="#A15842" stroke-width="4" stroke-linecap="round" stroke-linejoin="round"/>
<path d="M525.154 288.862C527.349 284.435 532.227 272.683 528.655 265.127" stroke="#A15842" stroke-width="4" stroke-linecap="round" stroke-linejoin="round"/>
</svg>
