<svg width="772" height="579" viewBox="0 0 772 579" fill="none" xmlns="http://www.w3.org/2000/svg">
<path d="M222.273 301.355H210.423V502.765H222.273V301.355Z" fill="#FFBE21"/>
<path d="M222.278 304.125H210.423" stroke="#A15842" stroke-width="4" stroke-miterlimit="10"/>
<path d="M156.648 462.351C157.849 458.908 160.091 455.924 163.063 453.813C166.035 451.701 169.591 450.567 173.237 450.567C176.883 450.567 180.438 451.701 183.411 453.813C186.383 455.924 188.625 458.908 189.825 462.351C190.971 459.064 193.067 456.192 195.848 454.098C198.628 452.005 201.968 450.785 205.444 450.592C203.892 447.827 202.045 445.238 199.934 442.872L193.555 435.698C191.572 433.468 190.323 430.683 189.978 427.72C189.632 424.756 190.207 421.759 191.625 419.133L197.039 409.073C195.519 410.603 186.732 418.829 173.396 418.829C160.06 418.829 151.273 410.603 149.754 409.073H149.729L155.148 419.133C156.559 421.764 157.125 424.765 156.77 427.729C156.414 430.693 155.154 433.476 153.16 435.698L146.786 442.843C144.671 445.21 142.819 447.798 141.262 450.563C144.7 450.803 147.991 452.048 150.727 454.144C153.463 456.24 155.522 459.094 156.648 462.351Z" fill="#4756DF"/>
<path d="M206.413 472.517C202.767 472.518 199.21 473.653 196.238 475.766C193.265 477.879 191.024 480.865 189.825 484.309C188.627 480.865 186.386 477.878 183.414 475.765C180.441 473.651 176.884 472.516 173.237 472.516C169.59 472.516 166.033 473.651 163.06 475.765C160.087 477.878 157.847 480.865 156.648 484.309C155.198 480.147 152.236 476.682 148.35 474.6C144.464 472.519 139.938 471.973 135.669 473.072C135.914 484.207 140.402 494.828 148.214 502.765H198.486C206.283 494.844 210.769 484.251 211.031 473.14C209.527 472.727 207.974 472.518 206.413 472.517Z" fill="#EAA58B"/>
<path d="M173.357 418.849C186.694 418.849 195.48 410.622 197 409.092H149.715C151.235 410.607 160.021 418.849 173.357 418.849Z" fill="#30242A"/>
<path d="M156.648 484.309C157.847 480.864 160.087 477.878 163.06 475.765C166.033 473.651 169.59 472.516 173.237 472.516C176.884 472.516 180.441 473.651 183.414 475.765C186.386 477.878 188.627 480.864 189.825 484.309C191.288 480.103 194.294 476.609 198.236 474.535C202.178 472.461 206.76 471.962 211.055 473.139C211.253 465.256 209.318 457.466 205.453 450.592C201.978 450.785 198.638 452.005 195.857 454.098C193.077 456.192 190.98 459.064 189.835 462.351C188.634 458.908 186.393 455.924 183.42 453.813C180.448 451.701 176.892 450.567 173.246 450.567C169.601 450.567 166.045 451.701 163.073 453.813C160.1 455.924 157.858 458.908 156.658 462.351C155.525 459.102 153.463 456.257 150.727 454.169C147.992 452.082 144.704 450.843 141.271 450.607C137.424 457.457 135.492 465.217 135.679 473.072C139.948 471.973 144.474 472.519 148.36 474.6C152.245 476.681 155.207 480.147 156.658 484.309H156.648Z" fill="#A15842"/>
<path d="M176.86 417.469C177.825 411.563 182.211 388.152 193.241 375.428" stroke="#30242A" stroke-width="4" stroke-miterlimit="10" stroke-linecap="round"/>
<path d="M171.77 417.638C171.698 410.931 171.008 378 164.46 358.353" stroke="#30242A" stroke-width="4" stroke-miterlimit="10" stroke-linecap="round"/>
<path d="M200.79 394.595C210.461 390.34 217.525 385.127 216.568 382.951C215.611 380.775 206.995 382.461 197.324 386.717C187.653 390.972 180.589 396.185 181.546 398.361C182.503 400.537 191.119 398.851 200.79 394.595Z" fill="#30242A"/>
<path d="M200.785 334.734C204.262 330.033 205.751 325.24 204.112 324.028C202.474 322.816 198.326 325.643 194.85 330.344C191.373 335.044 189.883 339.837 191.522 341.049C193.161 342.262 197.308 339.434 200.785 334.734Z" fill="#30242A"/>
<path d="M148.424 397.937C161.032 396.03 170.979 392.68 170.643 390.453C170.306 388.227 159.812 387.968 147.205 389.874C134.597 391.781 124.65 395.132 124.986 397.358C125.323 399.585 135.817 399.844 148.424 397.937Z" fill="#30242A"/>
<path d="M139.616 365.05V365.084C141.479 366.125 142.884 367.827 143.554 369.853C144.224 371.88 144.111 374.084 143.237 376.031C142.362 377.977 140.79 379.526 138.83 380.371C136.87 381.216 134.665 381.296 132.649 380.596V380.625C143.216 385.373 153.353 385.735 155.283 381.436C157.213 377.136 150.188 369.798 139.616 365.05Z" fill="#FF7235"/>
<path d="M170.858 330.638C168.61 330.054 165.686 333.456 163.548 338.72C160.976 332.327 157.247 328.047 154.733 328.877C152.219 329.707 151.77 335.362 153.512 342.03C148.658 339.077 144.287 338.083 142.825 339.892C140.962 342.199 144.552 348.182 150.844 353.262C152.634 354.721 154.56 356.004 156.595 357.093C156.942 355.715 157.628 354.446 158.59 353.4C159.553 352.354 160.761 351.565 162.106 351.105C163.45 350.645 164.888 350.528 166.29 350.765C167.691 351.002 169.011 351.585 170.13 352.461C171.073 350.432 171.825 348.319 172.378 346.15C174.409 338.329 173.729 331.381 170.858 330.638Z" fill="#FF7235"/>
<path d="M219.909 366.155C219.214 363.935 214.78 363.26 209.183 364.225C213.246 358.662 214.906 353.233 212.874 351.54C210.843 349.846 205.801 352.457 201.063 357.46C201.005 351.776 199.533 347.54 197.227 347.255C194.288 346.893 191.104 353.108 190.12 361.127C189.828 363.42 189.757 365.735 189.907 368.041C191.261 367.605 192.702 367.514 194.1 367.777C195.498 368.04 196.807 368.648 197.91 369.546C199.013 370.444 199.874 371.604 200.414 372.919C200.955 374.235 201.158 375.665 201.005 377.079C203.227 376.797 205.419 376.313 207.552 375.631C215.258 373.233 220.792 368.982 219.909 366.155Z" fill="#FF7235"/>
<path d="M197.975 369.595C196.871 368.675 195.553 368.048 194.142 367.774C192.732 367.5 191.275 367.587 189.907 368.027C190.182 371.843 191.147 374.782 192.6 375.848C193.955 377.103 197.092 377.522 200.995 377.064C201.147 375.666 200.951 374.253 200.424 372.95C199.897 371.646 199.055 370.494 197.975 369.595Z" fill="#30242A"/>
<path d="M162.192 351.077C160.828 351.527 159.6 352.314 158.621 353.366C157.643 354.418 156.946 355.7 156.595 357.093C159.973 358.879 162.974 359.602 164.663 358.946C166.443 358.464 168.455 356.017 170.13 352.461C169.024 351.593 167.72 351.013 166.335 350.771C164.95 350.529 163.527 350.634 162.192 351.077Z" fill="#30242A"/>
<path d="M140.557 379.375C139.65 378.869 138.966 378.041 138.64 377.055C138.314 376.068 138.371 374.995 138.799 374.049C139.227 373.102 139.994 372.35 140.95 371.943C141.906 371.535 142.979 371.502 143.959 371.848C143.845 370.452 143.39 369.106 142.633 367.927C141.875 366.749 140.839 365.776 139.616 365.093L132.634 380.596C133.954 381.057 135.367 381.186 136.748 380.974C138.129 380.761 139.437 380.212 140.557 379.375Z" fill="#F5EBDD"/>
<path d="M138.781 374.053C138.361 375 138.31 376.07 138.638 377.052C138.967 378.034 139.651 378.858 140.557 379.361C141.717 378.498 142.638 377.355 143.233 376.038C143.828 374.721 144.078 373.274 143.959 371.834C142.975 371.483 141.895 371.517 140.935 371.929C139.975 372.34 139.206 373.099 138.781 374.053Z" fill="#4856DF"/>
<path d="M457.646 381.841H334.932L337.007 373.609H390.873L411.418 293.263C414.217 282.319 420.579 272.618 429.502 265.69C438.425 258.762 449.399 255.002 460.696 255.001C488.338 255.001 508.565 281.056 501.708 307.835L489.014 357.479C487.232 364.446 483.182 370.622 477.503 375.033C471.824 379.444 464.838 381.839 457.646 381.841Z" fill="#FFB7D5"/>
<path d="M335.883 457.878V466.592H414.091V457.878H335.883Z" fill="#A15842"/>
<path d="M426.974 498.085L406.632 377.001H343.337L322.995 498.085C322.899 498.661 322.93 499.251 323.085 499.814C323.24 500.376 323.516 500.899 323.893 501.344C324.271 501.79 324.741 502.148 325.271 502.393C325.801 502.638 326.377 502.765 326.961 502.765C327.879 502.764 328.768 502.45 329.483 501.874C330.197 501.299 330.693 500.496 330.889 499.6L357.533 377.001H392.456L419.09 499.6C419.285 500.496 419.781 501.299 420.495 501.875C421.21 502.451 422.1 502.765 423.017 502.765C423.601 502.764 424.176 502.636 424.705 502.39C425.234 502.144 425.702 501.786 426.079 501.341C426.455 500.895 426.73 500.373 426.885 499.811C427.039 499.249 427.07 498.66 426.974 498.085Z" fill="#A15842"/>
<path d="M400.673 457.878V466.592H478.881V457.878H400.673Z" fill="#FFBE21"/>
<path d="M491.764 498.085L471.403 377.001H408.132L387.79 498.085C387.694 498.661 387.725 499.251 387.88 499.814C388.035 500.376 388.311 500.899 388.688 501.344C389.066 501.79 389.536 502.148 390.066 502.393C390.595 502.638 391.172 502.765 391.756 502.765C392.673 502.765 393.563 502.451 394.276 501.875C394.99 501.299 395.485 500.496 395.679 499.6L422.313 377.001H457.241L483.875 499.6C484.07 500.497 484.567 501.301 485.282 501.877C485.998 502.453 486.889 502.766 487.808 502.765C488.391 502.764 488.966 502.636 489.495 502.39C490.024 502.144 490.493 501.786 490.869 501.341C491.245 500.895 491.52 500.373 491.675 499.811C491.83 499.249 491.86 498.66 491.764 498.085Z" fill="#FFBE21"/>
<path d="M427.838 357.479L435.596 327.135H384.176C374.093 327.135 364.296 330.492 356.331 336.675C348.366 342.859 342.686 351.518 340.187 361.286L334.932 381.841H396.465C403.657 381.84 410.644 379.445 416.325 375.034C422.005 370.623 426.056 364.447 427.838 357.479Z" fill="#FFB7D5"/>
<path d="M338.276 372.804H403.558" stroke="#A15842" stroke-width="4" stroke-linecap="round" stroke-linejoin="round"/>
<path d="M391.105 372.5L402.545 327.772" stroke="#A15842" stroke-width="4" stroke-linecap="round" stroke-linejoin="round"/>
<path d="M496.01 326.098H465.13" stroke="#A15842" stroke-width="4" stroke-linecap="round" stroke-linejoin="round"/>
<path d="M501.8 304.385H462.235" stroke="#A15842" stroke-width="4" stroke-linecap="round" stroke-linejoin="round"/>
<path d="M357.682 294.581C357.682 294.581 318.971 305.123 302.527 313.35C275.416 326.903 275.507 335.849 258.977 385.928C243.716 432.209 242.036 454.64 220.985 455.528C204.913 456.204 199.644 461.463 197.039 468.672L260.637 498.847C261.366 499.192 262.199 499.245 262.966 498.996C263.733 498.747 264.376 498.213 264.762 497.506C265.156 496.782 265.252 495.934 265.029 495.141C264.807 494.347 264.283 493.673 263.57 493.26L262.234 492.488C268.145 485.327 279.546 470.071 290.914 446.896L298.151 450.274C298.151 450.274 309.842 435.08 311.695 417.845C314.107 395.587 312.66 380.586 322.826 371.877L441.377 294.561L357.682 294.581Z" fill="#FF7235"/>
<path d="M214.737 459.104C215.996 456.484 222.992 440.522 227.016 442.452C232.251 444.961 218.664 460.985 218.664 460.985L214.737 459.104Z" fill="#30242A"/>
<path d="M197.034 468.898L260.632 499.069C261.368 499.42 262.212 499.473 262.986 499.215C263.76 498.958 264.405 498.411 264.784 497.689C265.164 496.967 265.249 496.126 265.022 495.342C264.794 494.559 264.273 493.894 263.566 493.486L262.229 492.714L262.364 492.55L218.65 471.914C219.305 470.099 219.764 468.22 220.02 466.307C226.563 467.441 239.803 468.662 239.87 463.205C239.942 458.119 225.482 460.16 220.199 461.598C220.085 459.643 219.705 457.713 219.069 455.861C204.493 456.865 199.533 461.979 197.034 468.898Z" fill="#30242A"/>
<path d="M302.528 313.35C299.483 314.87 296.786 316.332 294.368 317.799L290.658 329.683L304.94 319.622L318.107 330.122L313.253 315.729L328.168 308.897L316.641 307.449C311.835 309.164 307.124 311.134 302.528 313.35Z" fill="#FFB7D5"/>
<path d="M344.606 307.164L343.641 313.451L349.933 311.034L344.606 307.164Z" fill="#FFB7D5"/>
<path d="M308.317 338.614L299.126 350.71L286.06 344.423L293.799 357.484L281.703 367.646L297.186 365.711L302.513 383.616L307.835 365.711L324.771 360.871L308.317 354.097V338.614Z" fill="#FFB7D5"/>
<path d="M256.642 430.974L257.771 427.751L273.211 426.93L260.666 418.39L266.253 405.011L253.616 413.435L251.204 410.829C249.274 417.184 247.566 422.844 245.896 427.818H245.974C246.157 427.273 246.34 426.723 246.524 426.163L256.642 430.974Z" fill="#FFB7D5"/>
<path d="M256.642 430.974L246.509 426.183C246.326 426.742 246.143 427.292 245.959 427.838C239.836 446.076 234.259 455.195 220.995 455.755C220.343 455.755 219.716 455.818 219.098 455.861C219.734 457.713 220.114 459.643 220.227 461.598C225.535 460.151 239.971 458.119 239.899 463.205C239.822 468.662 226.592 467.441 220.049 466.307C219.788 468.22 219.324 470.1 218.664 471.914L262.379 492.55C268.323 485.313 279.628 470.134 290.909 447.152L256.642 430.974Z" fill="#EAA58B"/>
<path d="M295.251 394.26L293.804 407.326L280.255 406.844L291.869 415.558L287.527 431.041L299.15 420.875L309.596 427.842C309.886 426.919 310.151 425.985 310.392 425.039L306.387 415.066L312.592 408.267C312.694 407.003 312.79 405.758 312.882 404.547L302.045 406.357L295.251 394.26Z" fill="#FFB7D5"/>
<path d="M265.071 367.101C263.85 370.874 262.538 374.97 261.09 379.424L273.964 380.21L265.071 367.101Z" fill="#FFB7D5"/>
<path d="M310.527 484.975C310.73 482.08 311.362 464.662 315.811 464.976C321.601 465.381 314.87 485.279 314.87 485.279L310.527 484.975Z" fill="#30242A"/>
<path d="M417.686 295.29C417.686 295.29 369.296 304.264 342.681 315.391C315.811 326.628 316.071 346.585 320.906 400.793C325.248 449.323 333.007 472.889 317.046 480.145C302.407 486.804 297.321 495.151 298.016 502.784H370.077C370.484 502.784 370.886 502.704 371.261 502.549C371.636 502.393 371.977 502.166 372.264 501.878C372.552 501.591 372.779 501.25 372.935 500.875C373.09 500.5 373.17 500.098 373.17 499.691C373.17 498.871 372.844 498.085 372.264 497.504C371.684 496.924 370.898 496.599 370.077 496.599H368.862C371.134 489.163 374.43 474.65 374.883 450.631H383.819C383.819 450.631 388.412 429.401 383.337 410.468C378.029 390.632 373.175 387.245 370.275 373.696H413.638C446.752 373.696 471.538 343.067 464.334 310.749C462.085 300.651 458.824 295.309 458.824 295.309L417.686 295.29Z" fill="#FF7235"/>
<path d="M387.684 323.613L378.801 334.787L364.968 330.035L373.166 343.453L362.522 357.972L376.553 352.162L384.374 366.579L385.262 350.71L398.81 347.81L387.201 340.548L387.684 323.613Z" fill="#FFB7D5"/>
<path d="M368.355 409.874L376.558 423.292L365.914 437.811L379.945 432.021L385.146 441.608C385.908 434.158 386.285 423.138 383.853 412.557L382.193 414.646L368.355 409.874Z" fill="#FFB7D5"/>
<path d="M332.177 450.612L331.555 443.133L347.265 437.073L332.394 433.989L334.035 417.666L324.385 430.293L324.095 430.173C325.022 437.965 325.832 444.773 326.286 450.665V450.612H332.177Z" fill="#FFB7D5"/>
<path d="M370.078 496.579H368.862C371.134 489.144 374.43 474.63 374.883 450.612H326.271V450.655C326.31 451.138 326.344 451.62 326.377 452.103C326.377 452.146 326.377 452.194 326.377 452.238C327.386 467.316 325.741 476.136 317.027 480.097C302.388 486.756 297.302 495.103 297.997 502.736H370.078C370.898 502.736 371.684 502.41 372.264 501.83C372.844 501.25 373.17 500.464 373.17 499.643C373.17 498.823 372.844 498.036 372.264 497.456C371.684 496.876 370.898 496.55 370.078 496.55V496.579Z" fill="#EAA58B"/>
<path d="M434.597 296.54L412.369 298.508L414.685 307.444L400.465 315.029L418.178 317.398L424.171 330.672L430.332 316.925L448.349 314.079L432.701 306.021L434.597 296.54Z" fill="#FFB7D5"/>
<path d="M328.65 359.419L333.958 342.483L349.441 344.896L337.345 334.252L346.03 324.09L330.064 329.88L327.511 325.504C323.405 330.155 320.925 335.931 319.598 343.357L322.32 343.443L328.65 359.419Z" fill="#FFB7D5"/>
<path d="M370.078 306.291C366.811 307.198 363.559 308.149 360.384 309.128L373.175 317.813L370.078 306.291Z" fill="#FFB7D5"/>
<path d="M348.973 384.581L342.199 370.55L338.811 386.034L326.233 385.069L337.842 395.23L330.585 412.166L343.183 400.422L353.624 412.46L350.425 394.26L361.069 380.229L348.973 384.581Z" fill="#FFB7D5"/>
<path d="M320.25 490.92C326.648 489.154 339.135 484.609 336.877 479.644C334.773 475.012 322.566 483.021 318.402 486.587C317.351 484.658 316.008 482.904 314.421 481.385C301.789 487.817 297.355 495.605 298.016 502.765H370.078C370.898 502.765 371.684 502.439 372.264 501.859C372.844 501.279 373.17 500.492 373.17 499.672C373.17 498.852 372.844 498.065 372.264 497.485C371.684 496.905 370.898 496.579 370.078 496.579H321.393C321.212 494.658 320.829 492.761 320.25 490.92Z" fill="#30242A"/>
<path d="M370.078 374.763L357.619 374.589" stroke="#A15842" stroke-width="4" stroke-miterlimit="10" stroke-linecap="round"/>
<path d="M379.342 304.178C366.435 307.468 352.64 311.507 342.189 315.869C319.898 325.205 316.284 340.529 318.45 376.466" stroke="#A15842" stroke-width="4" stroke-miterlimit="10" stroke-linecap="round"/>
<path d="M543.141 301.355H531.291V502.765H543.141V301.355Z" fill="#FFBE21"/>
<path d="M543.141 304.125H531.291" stroke="#A15842" stroke-width="4" stroke-miterlimit="10"/>
<path d="M371.231 149.903C364.476 148.938 349.002 156.2 348.49 170.554C347.979 184.908 360.794 189.521 362.845 190.549L392.581 185.931L394.632 153.121L371.231 149.903Z" fill="#A15842"/>
<path d="M423.765 114.256C436.53 114.256 446.877 103.909 446.877 91.1442C446.877 78.38 436.53 68.0325 423.765 68.0325C411.001 68.0325 400.654 78.38 400.654 91.1442C400.654 103.909 411.001 114.256 423.765 114.256Z" fill="#A15842"/>
<path d="M408.774 107.038C410.183 107.689 398.318 79.5353 392.263 83.926C386.565 88.0707 401.619 103.737 408.774 107.038Z" fill="#30242A"/>
<path d="M409.43 108.76C410.723 110.304 440.995 99.7134 436.807 93.605C432.802 87.7282 408.137 107.211 409.43 108.76Z" fill="#30242A"/>
<path d="M449.618 186.192C449.618 186.192 469.941 169.256 456.855 150.386C448.527 138.357 425.883 143.148 425.883 143.148C426.434 136.543 428.228 117.513 413.917 107.057C399.607 96.6013 381.45 102.107 374.835 110.357C368.22 118.608 369.885 134.024 367.684 145.03C365.484 156.036 366.951 163.519 373.735 167.042C379.906 170.245 387.168 168.31 387.168 168.31L386.396 179.924C386.396 179.924 372.403 180.45 363.829 183.553C343.169 191.031 306.87 242.321 306.87 242.321C284.13 241.356 262.837 240.391 262.837 240.391L273.968 273.298C273.968 273.298 302.031 282.489 322.353 277.158C342.971 271.758 362.517 242.804 362.517 242.804L369.272 262.157L357.658 294.576H458.79L441.854 264.574C444.783 237.969 449.618 186.192 449.618 186.192Z" fill="#EAA58B"/>
<path d="M417.121 178.718L390.584 226.838L379.728 180.407C374.956 180.889 368.596 181.825 363.877 183.533C343.169 191.031 306.87 242.321 306.87 242.321C284.13 241.356 262.837 240.391 262.837 240.391L273.968 273.298C273.968 273.298 302.031 282.489 322.353 277.158C342.971 271.758 362.517 242.804 362.517 242.804L369.272 262.157L357.658 294.576H458.79L441.854 264.579C444.749 237.964 449.574 186.187 449.574 186.187C445.094 183.46 440.188 181.502 435.061 180.397C429.285 179.094 422.935 179.871 417.121 178.718Z" fill="#FED2FF"/>
<path d="M279.691 291.194H363.491L344.437 231.016C343.877 229.243 342.767 227.694 341.266 226.595C339.766 225.495 337.955 224.903 336.095 224.903H265.274C263.898 224.902 262.541 225.226 261.313 225.848C260.086 226.47 259.022 227.373 258.21 228.484C257.397 229.594 256.857 230.881 256.635 232.239C256.413 233.597 256.515 234.988 256.931 236.3L272.68 286.065C273.153 287.553 274.087 288.853 275.347 289.775C276.608 290.697 278.129 291.194 279.691 291.194Z" fill="#30242A"/>
<path d="M292.178 252.126C294.402 249.086 304.491 257.115 305.234 257.776C305.62 257.115 310.875 249.091 314.725 252.126C318.069 254.76 310.72 266.528 308.766 269.529C308.684 269.62 308.584 269.693 308.472 269.743C308.361 269.793 308.24 269.818 308.117 269.818C307.995 269.818 307.874 269.793 307.762 269.743C307.65 269.693 307.55 269.62 307.468 269.529C303.903 266.528 290.248 254.76 292.178 252.126Z" fill="#A15842"/>
<path d="M304.403 254.161C305.245 253.898 305.277 251.596 304.474 249.019C303.672 246.442 302.338 244.565 301.496 244.827C300.654 245.09 300.622 247.392 301.425 249.969C302.227 252.546 303.561 254.423 304.403 254.161Z" fill="#A15842"/>
<path d="M412.152 284.419C412.394 285.198 412.45 286.022 412.316 286.827C412.182 287.631 411.86 288.392 411.377 289.049C410.895 289.707 410.265 290.241 409.538 290.61C408.81 290.98 408.007 291.173 407.191 291.174H279.691C278.129 291.175 276.608 290.678 275.347 289.756C274.087 288.834 273.153 287.534 272.68 286.045L272.159 284.4L412.152 284.419Z" fill="#30242A"/>
<path d="M563.56 291.194H190.004V303.29H563.56V291.194Z" fill="#FFBE21"/>
<path d="M489.009 357.479L496.768 327.135H451.509C441.426 327.136 431.63 330.492 423.666 336.676C415.702 342.859 410.023 351.518 407.524 361.286L402.265 381.841H457.632C464.825 381.84 471.812 379.446 477.493 375.035C483.175 370.624 487.226 364.447 489.009 357.479Z" fill="#FFB7D5"/>
<path d="M403.336 373.884L401.546 381.45" stroke="#A15842" stroke-width="4" stroke-linecap="round" stroke-linejoin="round"/>
<path d="M258.803 242.133C253.173 244.946 250.36 249.636 250.36 252.922C250.36 257.718 255.243 258.62 255.243 258.62C255.243 258.62 251.6 264.347 257.935 267.035C257.935 267.035 257.935 272.931 263.836 272.931C263.836 272.931 263.054 277.529 269.211 277.963C275.368 278.398 281.703 275.184 282.238 273.105C282.851 270.649 281.196 268.593 276.728 267.942C276.728 267.942 282.76 265.124 281.804 261.568C280.849 258.012 276.772 258.094 276.772 258.094C276.772 258.094 280.675 255.754 278.591 252.304C276.506 248.854 272.521 250.051 272.521 250.051C272.521 250.051 273.563 247.638 271.739 245.8C269.568 243.629 260.232 246.369 260.232 246.369L258.803 242.133Z" fill="#EAA58A"/>
<path d="M263.879 273.158C268.96 271.94 273.889 270.16 278.576 267.85" stroke="#A15842" stroke-width="4" stroke-miterlimit="10" stroke-linecap="round"/>
<path d="M257.92 267.006C264.965 265.074 271.691 262.127 277.886 258.258" stroke="#A15842" stroke-width="4" stroke-miterlimit="10" stroke-linecap="round"/>
<path d="M254.76 259.305C261.288 257.374 267.456 254.386 273.018 250.461" stroke="#A15842" stroke-width="4" stroke-miterlimit="10" stroke-linecap="round"/>
<path d="M456.879 150.386C448.551 138.357 425.908 143.148 425.908 143.148C426.458 136.543 428.253 117.513 413.942 107.057C399.631 96.6013 381.474 102.107 374.859 110.357C372.167 113.735 370.85 118.28 370.082 123.24C374.473 123.978 380.915 122.468 380.915 122.468C389.72 132.374 397.609 133.947 397.609 133.947C403.771 127.785 414.579 127.988 416.335 137.324C418.159 147.018 402.675 151.375 402.675 151.375C402.675 151.375 401.228 168.793 408.948 175.085C411.317 176.963 414.119 178.218 417.097 178.737C422.887 179.89 429.261 179.114 435.08 180.407C440.207 181.512 445.113 183.469 449.594 186.197C451.361 184.639 452.977 182.917 454.419 181.053C459.494 174.617 465.564 162.931 456.879 150.386Z" fill="#A15842"/>
<path d="M390.101 118.936C387.206 121.349 383.829 122.796 379.94 123.761" stroke="#EAA58B" stroke-width="4" stroke-miterlimit="10" stroke-linecap="round"/>
<path d="M387.009 169.396C389.255 168.647 391.423 167.677 393.479 166.501" stroke="#A15842" stroke-width="4" stroke-miterlimit="10" stroke-linecap="round"/>
<path d="M403.269 141.643L407.669 138.892" stroke="#A15842" stroke-width="4" stroke-miterlimit="10" stroke-linecap="round"/>
<path d="M378.02 154.559C378.931 155.124 382.362 155.563 383.723 152.943" stroke="#A15842" stroke-width="4" stroke-miterlimit="10" stroke-linecap="round"/>
<path d="M386.984 142.178C387.896 142.178 388.635 141.439 388.635 140.528C388.635 139.617 387.896 138.878 386.984 138.878C386.073 138.878 385.334 139.617 385.334 140.528C385.334 141.439 386.073 142.178 386.984 142.178Z" fill="#30242A"/>
<path d="M373.305 139.993C374.217 139.993 374.956 139.254 374.956 138.342C374.956 137.431 374.217 136.692 373.305 136.692C372.394 136.692 371.655 137.431 371.655 138.342C371.655 139.254 372.394 139.993 373.305 139.993Z" fill="#30242A"/>
<path d="M377.952 144.716C377.624 145.754 377.339 146.883 377.527 147.259C377.786 147.736 378.178 148.127 378.656 148.383" stroke="#A15842" stroke-width="4" stroke-miterlimit="10" stroke-linecap="round"/>
<path d="M405.339 157.811C408.531 157.811 411.119 155.223 411.119 152.031C411.119 148.839 408.531 146.251 405.339 146.251C402.146 146.251 399.558 148.839 399.558 152.031C399.558 155.223 402.146 157.811 405.339 157.811Z" fill="#F5EBDD"/>
<path d="M377.531 139.27C378.531 134.13 375.591 129.234 370.964 128.333C366.336 127.433 361.775 130.87 360.775 136.01C359.775 141.15 362.715 146.046 367.342 146.947C371.969 147.847 376.531 144.41 377.531 139.27Z" stroke="#30242A" stroke-width="4" stroke-miterlimit="10" stroke-linecap="round"/>
<path d="M398.496 141.841C399.496 136.701 396.556 131.804 391.928 130.904C387.301 130.004 382.739 133.441 381.739 138.581C380.739 143.72 383.68 148.617 388.307 149.517C392.934 150.418 397.496 146.981 398.496 141.841Z" stroke="#30242A" stroke-width="4" stroke-miterlimit="10" stroke-linecap="round"/>
<path d="M377.928 138.492L381.262 138.849" stroke="#30242A" stroke-width="4" stroke-miterlimit="10" stroke-linecap="round"/>
<path d="M427.012 143.785L426.052 149.961" stroke="#30242A" stroke-width="4" stroke-miterlimit="10" stroke-linecap="round"/>
<path d="M357.2 230.225L361.87 243.817" stroke="#30242A" stroke-width="4" stroke-linecap="round" stroke-linejoin="round"/>
<path d="M381.875 261.192H369.595" stroke="#30242A" stroke-width="4" stroke-linecap="round" stroke-linejoin="round"/>
<path d="M391.554 226.355L395.423 245.226V262.644" stroke="#30242A" stroke-width="4" stroke-linecap="round" stroke-linejoin="round"/>
<path d="M365.817 183.114L373.166 199.741L364.456 198.776L395.423 245.226" stroke="#30242A" stroke-width="4" stroke-linecap="round" stroke-linejoin="round"/>
<path d="M437.415 181.135L424.943 198.776L436.556 197.806L393.971 235.547" stroke="#30242A" stroke-width="4" stroke-linecap="round" stroke-linejoin="round"/>
<path d="M443.9 240.285L434.622 227.325" stroke="#30242A" stroke-width="4" stroke-linecap="round" stroke-linejoin="round"/>
<path d="M454.636 288.052C449.584 286.369 440.518 283.117 435.051 279.85" stroke="#30242A" stroke-width="4" stroke-linecap="round" stroke-linejoin="round"/>
<path d="M315.29 167.992C320.531 167.992 324.78 163.743 324.78 158.501C324.78 153.26 320.531 149.01 315.29 149.01C310.048 149.01 305.799 153.26 305.799 158.501C305.799 163.743 310.048 167.992 315.29 167.992Z" fill="#FFB7D5"/>
<path d="M286.925 120.731L281.399 114.068C280.548 113.043 279.027 112.901 278.002 113.751L277.883 113.85C276.857 114.701 276.715 116.222 277.566 117.247L283.092 123.91C283.942 124.936 285.463 125.077 286.489 124.227L286.608 124.128C287.633 123.278 287.775 121.757 286.925 120.731Z" fill="#4756DF"/>
<path d="M296.863 128.827L291.305 122.121L191.393 204.966C190.522 205.689 189.974 206.729 189.869 207.856C189.764 208.983 190.111 210.106 190.834 210.978L190.945 211.113C191.302 211.544 191.741 211.901 192.237 212.162C192.732 212.424 193.274 212.585 193.832 212.637C194.39 212.689 194.953 212.631 195.488 212.465C196.023 212.3 196.521 212.031 196.952 211.673L228.189 185.762V276.68H236.908V178.525L296.863 128.827Z" fill="#ABC8FF"/>
<path d="M280.762 130.757L283.546 134.135C284.516 135.307 285.253 136.653 285.717 138.101" stroke="#4756DF" stroke-width="4" stroke-miterlimit="10"/>
<path d="M232.546 187.774C238.827 187.774 243.918 182.683 243.918 176.402C243.918 170.121 238.827 165.029 232.546 165.029C226.265 165.029 221.173 170.121 221.173 176.402C221.173 182.683 226.265 187.774 232.546 187.774Z" fill="#4756DF"/>
<path d="M232.546 180.773C234.96 180.773 236.917 178.816 236.917 176.402C236.917 173.988 234.96 172.031 232.546 172.031C230.131 172.031 228.174 173.988 228.174 176.402C228.174 178.816 230.131 180.773 232.546 180.773Z" fill="#3EC1F3"/>
<path d="M323.082 153.112L308.535 165.136" stroke="#A15842" stroke-width="4" stroke-miterlimit="10"/>
<path d="M304.236 127.612C301.177 127.252 298.374 125.728 296.409 123.356L292.549 118.69C291.185 117.048 289.225 116.014 287.099 115.816C284.973 115.618 282.855 116.271 281.211 117.633C280.397 118.308 279.724 119.137 279.231 120.071C278.737 121.006 278.433 122.029 278.335 123.082C278.236 124.134 278.347 125.196 278.659 126.205C278.971 127.215 279.479 128.154 280.154 128.967L284.014 133.648C285.97 136.013 286.942 139.039 286.73 142.101L285.765 156.209C285.287 163.112 287.04 169.987 290.764 175.818L291.999 177.748L338.286 139.356L336.626 137.797C331.588 133.057 325.16 130.062 318.291 129.252L304.236 127.612Z" fill="#ABC8FF"/>
<path d="M236.908 276.68H228.189L215.301 280.193C212.888 280.851 210.759 282.285 209.241 284.272C207.723 286.26 206.9 288.692 206.901 291.194H258.191C258.191 288.692 257.368 286.259 255.849 284.271C254.33 282.283 252.199 280.85 249.785 280.193L236.908 276.68Z" fill="#3EC1F3"/>
<path d="M329.504 132.528L287.145 167.538" stroke="#4756DF" stroke-width="4" stroke-miterlimit="10" stroke-linecap="round"/>
<path d="M227.976 275.681H236.908" stroke="#4756DF" stroke-width="4" stroke-miterlimit="10" stroke-linecap="round"/>
<path d="M208.594 285.162H256.208" stroke="#4756DF" stroke-width="4" stroke-miterlimit="10" stroke-linecap="round"/>
<path d="M483.011 415.669C483.976 407.466 483.494 389.054 472.85 375.023C462.206 360.992 476.71 366.821 481.053 370.681C488.001 376.857 494.119 382.777 499.441 402.617L483.011 415.669Z" fill="#30242A"/>
<path d="M611.535 502.765H668.34V500.907C668.338 498.289 667.297 495.778 665.445 493.927C663.593 492.075 661.082 491.035 658.463 491.035H611.241L611.535 502.765Z" fill="#A15842"/>
<path d="M472.966 448.532L484.946 502.765H507.209V499.388C507.209 497.21 506.345 495.121 504.808 493.579C503.27 492.037 501.184 491.167 499.006 491.161C499.006 491.161 510.133 482.818 516.907 474.592C516.907 474.592 528.521 488.744 544.974 486.321L546.166 492.111C546.786 495.117 548.422 497.817 550.799 499.757C553.176 501.697 556.149 502.76 559.217 502.765H613.175C637.107 502.765 648.88 499.112 649.556 485.487C649.577 484.967 649.492 484.448 649.308 483.962C649.123 483.476 648.842 483.032 648.481 482.657C648.121 482.282 647.688 481.984 647.21 481.78C646.731 481.577 646.216 481.472 645.696 481.472H630.632C630.011 481.473 629.398 481.334 628.837 481.066C628.277 480.798 627.784 480.407 627.395 479.923L620.982 471.967C619.082 469.613 616.545 467.853 613.674 466.898C610.802 465.942 607.717 465.831 604.785 466.578L591.888 469.873C591.888 469.873 569.036 437.034 548.337 414.226C528.555 392.451 491.344 390.101 476.686 418.463C471.973 427.744 470.657 438.382 472.966 448.532Z" fill="#A15842"/>
<path d="M607.854 502.765V500.907C607.854 499.611 607.598 498.327 607.102 497.128C606.605 495.93 605.878 494.842 604.96 493.925C604.043 493.008 602.954 492.281 601.756 491.786C600.558 491.29 599.274 491.035 597.977 491.035H591.4" stroke="#30242A" stroke-width="4" stroke-miterlimit="10"/>
<path d="M517.805 474.978C521.182 470.959 532.709 456.16 531.884 441.685C531.001 426.197 521.722 417.975 521.722 417.975" stroke="#30242A" stroke-width="4" stroke-miterlimit="10" stroke-linecap="round"/>
<path d="M542.045 465.873C542.045 465.873 542.663 477.323 543.903 485.873" stroke="#30242A" stroke-width="4" stroke-miterlimit="10" stroke-linecap="round"/>
<path d="M495.595 497.81V502.283" stroke="#30242A" stroke-width="4" stroke-miterlimit="10" stroke-linecap="round"/>
<path d="M500.917 497.81V502.283" stroke="#30242A" stroke-width="4" stroke-miterlimit="10" stroke-linecap="round"/>
<path d="M597.21 497.81V502.283" stroke="#30242A" stroke-width="4" stroke-miterlimit="10" stroke-linecap="round"/>
<path d="M602.532 497.81V502.283" stroke="#30242A" stroke-width="4" stroke-miterlimit="10" stroke-linecap="round"/>
<path d="M616.804 484.744C618.006 484.744 618.98 483.769 618.98 482.568C618.98 481.366 618.006 480.391 616.804 480.391C615.602 480.391 614.628 481.366 614.628 482.568C614.628 483.769 615.602 484.744 616.804 484.744Z" fill="#30242A"/>
<path d="M604.93 466.534V466.476L591.868 469.854L604.766 466.558L604.93 466.534Z" fill="#30242A"/>
<path d="M572.785 491.253C569.003 493.183 563.657 496.961 564.1 502.683H585.108L589.523 495.721C590.245 494.582 591.242 493.644 592.423 492.993C593.604 492.343 594.93 492.002 596.278 492H597.682L604.881 466.679L604.775 466.568L591.878 469.863L579.531 485.68C577.713 488.005 575.411 489.906 572.785 491.253Z" fill="#30242A"/>
<path d="M542.103 426.048C542.103 426.048 536.26 446.274 555.131 453.912C564.699 457.772 572.646 454.843 578.161 451.017C569.828 439.919 558.803 425.792 548.332 414.25C545.707 411.362 542.757 408.786 539.541 406.574C536.685 410.463 533.558 420.084 542.103 426.048Z" fill="#EAA58B"/>
<path d="M493.902 440.716C498.312 440.716 501.887 437.14 501.887 432.73C501.887 428.32 498.312 424.745 493.902 424.745C489.491 424.745 485.916 428.32 485.916 432.73C485.916 437.14 489.491 440.716 493.902 440.716Z" fill="#EAA58B"/>
<path d="M645.715 481.472H642.82C642.661 482.28 642.682 483.112 642.882 483.91C643.082 484.708 643.457 485.452 643.978 486.089C644.5 486.725 645.156 487.238 645.899 487.591C646.642 487.944 647.454 488.129 648.277 488.131C648.617 488.131 648.957 488.098 649.291 488.034C649.438 487.192 649.533 486.341 649.575 485.487C649.596 484.967 649.512 484.448 649.327 483.962C649.142 483.476 648.861 483.032 648.501 482.657C648.14 482.282 647.708 481.984 647.229 481.78C646.75 481.577 646.235 481.472 645.715 481.472Z" fill="#30242A"/>
<path d="M657.208 497.81V502.172" stroke="#30242A" stroke-width="4" stroke-miterlimit="10" stroke-linecap="round"/>
<path d="M662.53 497.81V502.172" stroke="#30242A" stroke-width="4" stroke-miterlimit="10" stroke-linecap="round"/>
<path d="M628.007 502.186C639.838 500.994 646.893 497.79 649.455 490.973" stroke="#30242A" stroke-width="4" stroke-linecap="round" stroke-linejoin="round"/>
<path d="M435.104 248.328C429.15 247.795 423.163 247.729 417.198 248.13C408.668 248.83 397.199 251.064 392.591 253.293C387.983 255.522 370.338 263.392 375.091 266.031C379.433 268.444 388.543 264.815 388.543 264.815C388.543 264.815 379.452 273.172 377.889 276.67C376.326 280.168 381.493 282.132 381.493 282.132C382.854 288.106 388.943 285.539 388.943 285.539C392.779 293.698 413.503 276.019 413.503 276.019C418.433 276.531 423.412 276.322 428.281 275.397C428.281 275.397 430.906 276.868 435.118 278.914L435.104 248.328Z" fill="#EAA58A"/>
<path d="M486.876 289.259C525.587 270.871 469.473 202.167 449.618 186.192L438.491 231.195L452.522 250.548C446.375 249.486 440.498 248.758 435.104 248.328V278.914C447.389 284.887 473.202 295.772 486.876 289.259Z" fill="#FED2FF"/>
<path d="M386.69 265.322C390.125 262.48 395.829 257.887 400.084 255.117" stroke="#A15842" stroke-width="4" stroke-miterlimit="10" stroke-linecap="round"/>
<path d="M404.774 261.906C394.888 268.309 385.879 276.863 381.421 281.341" stroke="#A15842" stroke-width="4" stroke-miterlimit="10" stroke-linecap="round"/>
<path d="M409.16 269.148C402.405 273.785 394.564 280.815 389.445 285.64" stroke="#A15842" stroke-width="4" stroke-miterlimit="10" stroke-linecap="round"/>
<path d="M525.298 266.547C526.029 266.549 526.731 266.84 527.248 267.357C527.765 267.875 528.057 268.576 528.058 269.307V269.717C528.057 270.449 527.765 271.15 527.248 271.668C526.731 272.185 526.029 272.476 525.298 272.477H511.079V266.547H525.298ZM525.298 262.687H507.74C507.671 262.687 507.603 262.701 507.539 262.728C507.476 262.754 507.418 262.793 507.369 262.842C507.321 262.891 507.283 262.949 507.257 263.012C507.231 263.076 507.218 263.145 507.219 263.213V275.831C507.219 275.969 507.273 276.102 507.371 276.199C507.469 276.297 507.602 276.352 507.74 276.352H525.298C526.168 276.352 527.031 276.18 527.835 275.847C528.639 275.513 529.369 275.024 529.984 274.408C530.599 273.792 531.086 273.06 531.418 272.255C531.75 271.45 531.92 270.588 531.918 269.717V269.293C531.918 267.537 531.22 265.853 529.979 264.612C528.737 263.37 527.054 262.673 525.298 262.673V262.687Z" fill="#3EC1F3"/>
<path d="M504.068 260.608C489.689 260.608 483.045 249.149 483.045 249.149L492.695 291.194H515.411L525.061 249.149C522.82 252.681 519.718 255.587 516.046 257.591C512.373 259.596 508.252 260.634 504.068 260.608Z" fill="#76A5FF"/>
<path d="M504.068 260.608C508.256 260.639 512.384 259.603 516.062 257.598C519.74 255.594 522.847 252.686 525.09 249.149H483.045C483.045 249.149 489.689 260.608 504.068 260.608Z" fill="#30242A"/>
</svg>
